<svg width="56" height="56" viewBox="0 0 56 56" fill="none" xmlns="http://www.w3.org/2000/svg">
    <circle cx="28" cy="28" r="28" fill="#777"/>
    <path fill-rule="evenodd" clip-rule="evenodd" d="M31.936 15.727a5.895 5.895 0 0 1 8.337 8.337l-3.769 3.769a.823.823 0 1 1-1.164-1.165l3.769-3.769a4.248 4.248 0 1 0-6.008-6.008l-7.091 7.091a4.246 4.246 0 0 0-1.239 3.003.81.81 0 0 1-.004.083c-.025.254-.026.51-.004.765a4.26 4.26 0 0 0 1.909 2.69.824.824 0 0 1-.87 1.398 5.908 5.908 0 0 1-2.66-3.79.804.804 0 0 1-.014-.09 5.764 5.764 0 0 1-.004-1.094 5.89 5.89 0 0 1 1.72-4.128l7.092-7.092z" fill="#fff"/>
    <path fill-rule="evenodd" clip-rule="evenodd" d="M29.09 24.353a.824.824 0 0 1 1.139-.247c.664.428 1.23.993 1.659 1.656.65.96.995 2.094.988 3.253v.004l-.824-.006.824-.001v.003a5.89 5.89 0 0 1-1.72 4.166l-7.092 7.092a5.896 5.896 0 0 1-8.337-8.337l3.768-3.769a.823.823 0 1 1 1.165 1.165l-3.769 3.769a4.248 4.248 0 1 0 6.008 6.008l7.091-7.091a4.246 4.246 0 0 0 1.239-3.003v-.008a4.08 4.08 0 0 0-.708-2.326l-.012-.018a3.918 3.918 0 0 0-1.172-1.172.823.823 0 0 1-.246-1.138z" fill="#fff"/>
</svg>
