<svg width="40" height="40" viewBox="0 0 40 40" fill="none" xmlns="http://www.w3.org/2000/svg">
    <path d="M32.181 32.42H6.93A2.934 2.934 0 0 1 4 29.49V13.26a2.933 2.933 0 0 1 2.93-2.93h5.458a.698.698 0 0 0 .696-.696A2.637 2.637 0 0 1 15.718 7h7.675a2.637 2.637 0 0 1 2.634 2.634.698.698 0 0 0 .696.696h5.458a2.933 2.933 0 0 1 2.93 2.93v16.23a2.934 2.934 0 0 1-2.93 2.93zM6.93 11.706a1.558 1.558 0 0 0-1.556 1.556v16.23a1.558 1.558 0 0 0 1.556 1.556H32.18a1.557 1.557 0 0 0 1.556-1.557v-16.23a1.558 1.558 0 0 0-1.556-1.555h-5.458a2.073 2.073 0 0 1-2.07-2.07 1.262 1.262 0 0 0-1.26-1.26h-7.675a1.262 1.262 0 0 0-1.26 1.26 2.073 2.073 0 0 1-2.07 2.07H6.93z" fill="#fff"/>
    <path d="M19.555 27.944a6.915 6.915 0 1 1 6.916-6.915 6.923 6.923 0 0 1-6.916 6.915zm0-12.456a5.541 5.541 0 1 0 5.542 5.541 5.548 5.548 0 0 0-5.542-5.541zM30.948 14.473h-3.582a.687.687 0 0 1 0-1.374h3.582a.686.686 0 1 1 0 1.373z" fill="#fff"/>
</svg>
