<svg width="56" height="56" viewBox="0 0 56 56" fill="none" xmlns="http://www.w3.org/2000/svg">
    <path d="M28 56c15.464 0 28-12.536 28-28S43.464 0 28 0 0 12.536 0 28s12.536 28 28 28z" fill="#1DA1F2"/>
    <path d="M43.811 19.57a13.174 13.174 0 0 1-3.632.97 6.306 6.306 0 0 0 2.774-3.482 12.718 12.718 0 0 1-4.001 1.523 6.305 6.305 0 0 0-10.908 4.312 6.66 6.66 0 0 0 .145 1.455 17.862 17.862 0 0 1-12.998-6.596 6.305 6.305 0 0 0 1.94 8.43 6.183 6.183 0 0 1-2.847-.782v.073a6.306 6.306 0 0 0 5.049 6.203 6.301 6.301 0 0 1-1.654.209 5.716 5.716 0 0 1-1.188-.107 6.378 6.378 0 0 0 5.892 4.394 12.663 12.663 0 0 1-7.833 2.687 11.826 11.826 0 0 1-1.508-.087 17.722 17.722 0 0 0 9.671 2.833c11.607 0 17.946-9.613 17.946-17.946v-.815c1.24-.891 2.309-2 3.152-3.274z" fill="#fff"/>
</svg>
