<svg width="41" height="40" viewBox="0 0 41 40" fill="none" xmlns="http://www.w3.org/2000/svg">
    <path d="M34.944 35.11a.668.668 0 0 1-.3-.07l-7.464-3.732a.321.321 0 0 0-.307.009l-6.487 3.706a.554.554 0 0 1-.064.025l-.038.014a.601.601 0 0 0-.058.025.618.618 0 0 1-.342.002.395.395 0 0 0-.058-.027l-.037-.014a.6.6 0 0 1-.064-.025l-6.487-3.707a.326.326 0 0 0-.307-.008l-7.466 3.733a.667.667 0 0 1-.965-.597v-16.87a.665.665 0 0 1 .42-.618l4.962-1.985a.667.667 0 1 1 .494 1.239L6.04 17.945a.327.327 0 0 0-.206.303v14.59a.326.326 0 0 0 .472.292l5.956-2.979a.323.323 0 0 0 .18-.29v-8.32a.668.668 0 0 1 1.289-.263.667.667 0 0 1 .044.263v8.357a.327.327 0 0 0 .164.282l4.963 2.836a.326.326 0 0 0 .487-.282v-4.246a.667.667 0 0 1 1.335 0v4.246a.325.325 0 0 0 .487.282l4.963-2.835a.327.327 0 0 0 .164-.283v-8.357a.667.667 0 1 1 1.334 0v8.32a.324.324 0 0 0 .18.29l5.955 2.979a.336.336 0 0 0 .27.009.326.326 0 0 0 .202-.3V18.242a.328.328 0 0 0-.206-.303l-4.338-1.736a.668.668 0 0 1 .495-1.238l4.963 1.985a.665.665 0 0 1 .42.617v16.876a.664.664 0 0 1-.668.667z" fill="#fff"/>
    <path d="M20.056 25.186a.665.665 0 0 1-.53-.262c-.725-.946-7.085-9.362-7.085-13.309a7.615 7.615 0 0 1 15.23 0c0 3.947-6.36 12.363-7.086 13.309a.662.662 0 0 1-.529.262zm0-19.853a6.289 6.289 0 0 0-6.282 6.282c0 2.93 4.607 9.492 6.016 11.433a.327.327 0 0 0 .527 0c1.412-1.941 6.016-8.505 6.016-11.433a6.288 6.288 0 0 0-6.277-6.282z" fill="#fff"/>
    <path d="M20.056 15.26a3.645 3.645 0 1 1 0-7.29 3.645 3.645 0 0 1 0 7.29zm0-5.956a2.314 2.314 0 1 0 0 4.63 2.314 2.314 0 0 0 0-4.63z" fill="#fff"/>
</svg>
