<svg width="41" height="40" viewBox="0 0 41 40" fill="none" xmlns="http://www.w3.org/2000/svg">
    <path d="M33.665 32.382H12.261a1.946 1.946 0 0 1-1.946-1.946v-14.27a1.946 1.946 0 0 1 1.946-1.946h21.404a1.946 1.946 0 0 1 1.946 1.946v14.27a1.946 1.946 0 0 1-1.946 1.946zM12.261 15.518a.649.649 0 0 0-.649.648v14.27a.648.648 0 0 0 .649.648h21.404a.648.648 0 0 0 .649-.648v-14.27a.65.65 0 0 0-.649-.649H12.261z" fill="#fff"/>
    <path d="M7.8 27.574a1.946 1.946 0 0 1-1.935-1.748L4.51 12.27a1.946 1.946 0 0 1 1.742-2.13L27.55 8.01a1.946 1.946 0 0 1 2.13 1.742l.278 2.77a.649.649 0 0 1-1.291.13l-.277-2.771a.648.648 0 0 0-.71-.58L6.384 11.43a.649.649 0 0 0-.58.709L7.16 25.692a.648.648 0 0 0 .71.581l.795-.08a.647.647 0 0 1 .57 1.057.648.648 0 0 1-.441.233l-.795.081c-.07.006-.134.01-.2.01z" fill="#fff"/>
    <path d="M20.044 23.3a2.594 2.594 0 1 1 0-5.188 2.594 2.594 0 0 1 0 5.189zm0-3.89a1.297 1.297 0 1 0 0 2.592 1.297 1.297 0 0 0 0-2.593zM25.882 28.49a2.594 2.594 0 1 1 0-5.189 2.594 2.594 0 0 1 0 5.189zm0-3.892a1.297 1.297 0 1 0 0 2.593 1.297 1.297 0 0 0 0-2.593zM26.69 18.042l-8.432 9.666.977.853 8.433-9.666-.978-.853z" fill="#fff"/>
</svg>
