<svg width="56" height="56" viewBox="0 0 56 56" fill="none" xmlns="http://www.w3.org/2000/svg">
    <circle cx="28" cy="28" r="28" fill="#fff"/>
    <path d="M56 28.17a28.3 28.3 0 0 0-4.42-15.188A28.053 28.053 0 0 0 39.72 2.587 27.845 27.845 0 0 0 24.16.267 27.92 27.92 0 0 0 9.813 6.752a28.189 28.189 0 0 0-8.609 13.246 28.34 28.34 0 0 0-.151 15.826 28.197 28.197 0 0 0 8.352 13.411c4 3.576 8.935 5.923 14.22 6.764V36.316h-7.108V28.17h7.108v-6.208c0-7.06 4.178-10.958 10.588-10.958 2.096.03 4.187.212 6.257.547v6.934h-3.533c-3.48 0-4.562 2.17-4.562 4.402v5.283h7.763L38.9 36.316h-6.526V56a27.962 27.962 0 0 0 16.914-9.53A28.281 28.281 0 0 0 56 28.17z" fill="#1877F2"/>
</svg>
