<svg width="41" height="40" viewBox="0 0 41 40" fill="none" xmlns="http://www.w3.org/2000/svg">
    <path d="M15.28 21.061a.636.636 0 0 0 .525 0c2.725-1.237 5.768-4.533 5.768-7.092 0-1.532-.688-2.458-1.263-2.965a3.855 3.855 0 0 0-2.515-.95c-1.03 0-1.83.54-2.263.834-.461-.312-1.23-.83-2.263-.83a3.85 3.85 0 0 0-2.513.957c-.574.509-1.259 1.436-1.256 2.968 0 2.558 3.053 5.847 5.78 7.078zm-4.521-7.08c0-.841.287-1.54.831-2.023a2.604 2.604 0 0 1 1.676-.639h.004c1.049 0 1.74.724 1.817.808l.005.005a.627.627 0 0 0 .878 0l.006-.007c.075-.082.771-.81 1.82-.81.616.007 1.21.232 1.675.636.546.48.836 1.178.836 2.018 0 1.923-2.55 4.692-4.767 5.816-2.219-1.119-4.778-3.882-4.781-5.805z" fill="#fff"/>
    <path d="M24.516 25.488a3.52 3.52 0 0 0 3.52-3.52V9.52A3.52 3.52 0 0 0 24.516 6H8.02A3.52 3.52 0 0 0 4.5 9.52v12.45a3.52 3.52 0 0 0 3.52 3.52h1.924v4.424a.63.63 0 0 0 .875.584.627.627 0 0 0 .206-.138l4.869-4.869 8.622-.003zm-13.94-1.262H8.02a2.26 2.26 0 0 1-2.256-2.256V9.52A2.26 2.26 0 0 1 8.02 7.264h16.496a2.26 2.26 0 0 1 2.257 2.256v12.45a2.26 2.26 0 0 1-2.257 2.256H15.63a.636.636 0 0 0-.45.185l-3.977 3.977v-3.527a.632.632 0 0 0-.629-.635z" fill="#fff"/>
    <path d="M32.228 9.662h-2.72a.631.631 0 1 0 0 1.262h2.718a2.26 2.26 0 0 1 2.257 2.257V25.63a2.26 2.26 0 0 1-2.257 2.257h-2.553a.632.632 0 0 0-.631.63v3.535l-3.978-3.978a.626.626 0 0 0-.449-.184h-8.882c-.17 0-.338-.02-.503-.056a.624.624 0 0 0-.708.367.631.631 0 0 0 .44.866c.253.057.511.085.77.085h8.625l4.868 4.869a.626.626 0 0 0 .45.184.634.634 0 0 0 .305-.079.645.645 0 0 0 .325-.57v-4.407h1.925a3.52 3.52 0 0 0 3.52-3.52V13.18a3.52 3.52 0 0 0-3.522-3.519z" fill="#fff"/>
</svg>
