<svg width="56" height="56" viewBox="0 0 56 56" fill="none" xmlns="http://www.w3.org/2000/svg">
    <circle cx="28" cy="28" r="28" fill="#FAE500"/>
    <g clip-path="url(#or80fxfwla)">
        <path d="M28 15.867c-8.247 0-14.93 5.214-14.93 11.646 0 4.186 2.832 7.855 7.083 9.908-.309 1.15-1.13 4.168-1.295 4.813-.201.801.298.79.625.575.257-.169 4.093-2.74 5.748-3.851.917.134 1.844.201 2.772.201 8.247 0 14.93-5.215 14.93-11.646 0-6.431-6.685-11.646-14.93-11.646" fill="#391B1B"/>
        <path d="M21.99 24.084h-4.366a.748.748 0 0 0-.526.215.727.727 0 0 0 0 1.036c.14.137.329.214.526.214h1.42v5.16c0 .19.077.372.212.505.136.134.32.21.512.21h.159a.732.732 0 0 0 .51-.21.712.712 0 0 0 .213-.504v-5.16h1.34a.748.748 0 0 0 .526-.215.728.728 0 0 0 0-1.036.748.748 0 0 0-.525-.215zM32.486 30.045h-2.03v-5.27a.784.784 0 0 0-.228-.578.807.807 0 0 0-.579-.242.816.816 0 0 0-.578.242.793.793 0 0 0-.227.578v5.68a.78.78 0 0 0 .013.128.626.626 0 0 0 .038.382.664.664 0 0 0 .365.36c.082.033.17.05.258.05h2.968a.68.68 0 0 0 .462-.202.66.66 0 0 0 0-.925.68.68 0 0 0-.462-.203zM38.975 30.287l-2.262-2.932 2.044-2.018a.702.702 0 0 0 .209-.496.693.693 0 0 0-.209-.496.71.71 0 0 0-.503-.205.719.719 0 0 0-.502.205l-2.532 2.497v-2.067a.786.786 0 0 0-.227-.578.807.807 0 0 0-.579-.242.816.816 0 0 0-.578.242.794.794 0 0 0-.227.578v5.856a.79.79 0 0 0 .244.546.812.812 0 0 0 1.123 0 .79.79 0 0 0 .244-.546v-1.808l.46-.453 2.141 2.771a.729.729 0 0 0 1.01.142.704.704 0 0 0 .144-.996zM28.241 30.478l-2.177-5.876-.007-.006c-.14-.358-.541-.62-1.02-.62-.531 0-.97.321-1.058.74a.876.876 0 0 0-.04.097L21.8 30.478a.704.704 0 0 0 .17.806.722.722 0 0 0 .545.189.73.73 0 0 0 .51-.266.708.708 0 0 0 .134-.26l.37-1.041h2.979l.37 1.042a.716.716 0 0 0 .368.406.731.731 0 0 0 .552.03.72.72 0 0 0 .412-.364.704.704 0 0 0 .03-.544v.002zm-4.239-1.901 1.001-2.819h.033l1 2.815-2.034.004z" fill="#FAE300"/>
    </g>
    <defs>
        <clipPath id="or80fxfwla">
            <path fill="#fff" transform="translate(13.067 15.867)" d="M0 0h29.867v27.067H0z"/>
        </clipPath>
    </defs>
</svg>
