<svg width="188" height="52" viewBox="0 0 188 52" fill="none" xmlns="http://www.w3.org/2000/svg">
<path d="M12.4305 12.616H6.3665V10.008H12.4305V12.616ZM14.4945 8.328H4.2865V14.28H14.4945V8.328ZM16.0945 15.848H2.7505V17.528H5.8065V22.424H7.9025V17.528H10.9905V22.424H13.1025V17.528H16.0945V15.848ZM23.1653 10.792H26.2053V9.048H17.9493V10.792H21.0213V11.608C21.0213 14.12 19.8213 16.824 17.3573 17.928L18.5573 19.608C20.2853 18.824 21.4693 17.208 22.1253 15.288C22.7813 17.064 23.9493 18.504 25.6613 19.24L26.8133 17.576C24.3493 16.552 23.1653 14.008 23.1653 11.608V10.792ZM27.5653 7.64V22.376H29.6773V7.64H27.5653ZM36.78 18.296H42.444V20.552H36.78V18.296ZM34.7 22.2H44.508V16.648H34.7V22.2ZM36.252 13.816C35.18 13.816 34.396 13.128 34.396 11.976C34.396 10.856 35.18 10.2 36.252 10.2C37.34 10.2 38.124 10.856 38.124 11.976C38.124 13.128 37.34 13.816 36.252 13.816ZM42.396 7.64V11.112H40.044C39.644 9.512 38.14 8.408 36.252 8.408C34.06 8.408 32.38 9.912 32.38 11.976C32.38 14.088 34.06 15.576 36.252 15.576C38.156 15.576 39.66 14.472 40.06 12.824H42.396V15.992H44.508V7.64H42.396ZM50.1548 12.456C50.1548 10.952 51.5468 10.072 53.5628 10.072C55.5948 10.072 56.9868 10.952 56.9868 12.456C56.9868 13.96 55.5948 14.84 53.5628 14.84C51.5468 14.84 50.1548 13.96 50.1548 12.456ZM54.6188 18.952V16.456C57.2268 16.152 59.0668 14.648 59.0668 12.456C59.0668 9.992 56.7148 8.392 53.5628 8.392C50.4268 8.392 48.0748 9.992 48.0748 12.456C48.0748 14.648 49.9148 16.136 52.5068 16.456V18.952H46.9068V20.664H60.2508V18.952H54.6188ZM61.6255 18.904V20.632H74.9695V18.904H61.6255ZM63.0335 8.6V16.456H73.5135V8.6H71.4335V10.984H65.1295V8.6H63.0335ZM65.1295 12.632H71.4335V14.776H65.1295V12.632ZM86.5523 15.08H88.6643V7.624H86.5523V10.792H84.0403V12.472H86.5523V15.08ZM77.4163 8.28V9.912H81.7843C81.7523 10.184 81.6883 10.472 81.6083 10.728L76.6803 10.904L76.9683 12.504L80.6963 12.216C79.8802 13.016 78.6003 13.656 76.6163 14.088L77.3523 15.688C82.0563 14.568 84.0083 12.248 84.0083 8.28H77.4163ZM81.0483 20.568V19.64H88.6643V15.656H78.9523V17.272H86.5843V18.12H78.9683V22.2H88.9683V20.568H81.0483ZM93.655 14.408H98.183V8.888H91.543V10.568H96.087V12.76H91.575V19H92.791C95.239 19 97.191 18.92 99.383 18.568L99.191 16.856C97.335 17.16 95.655 17.256 93.655 17.272V14.408ZM101.271 7.624V12.936H98.967V14.648H101.271V22.408H103.399V7.624H101.271ZM117.151 15.224C117.215 14.824 117.247 14.376 117.247 13.912C117.247 13.352 117.199 12.824 117.103 12.344H119.663V15.224H117.151ZM113.439 17.272C112.367 17.272 111.631 16.104 111.631 13.912C111.631 11.736 112.367 10.568 113.439 10.568C114.527 10.568 115.263 11.736 115.263 13.912C115.263 16.104 114.527 17.272 113.439 17.272ZM119.663 7.624V10.648H116.527C115.871 9.384 114.767 8.664 113.439 8.664C111.247 8.664 109.631 10.68 109.631 13.912C109.631 17.16 111.247 19.192 113.439 19.192C114.863 19.208 115.999 18.376 116.655 16.936H119.663V22.408H121.775V7.624H119.663ZM136.974 12.872C133.63 12.408 131.934 10.488 131.934 8.776V8.072H129.678V8.776C129.678 10.504 127.998 12.408 124.638 12.872L125.438 14.568C128.014 14.184 129.87 12.984 130.814 11.4C131.758 12.984 133.598 14.184 136.174 14.568L136.974 12.872ZM137.454 15.656H124.142V17.368H129.694V22.392H131.806V17.368H137.454V15.656ZM154.373 12.792H146.213V11.928H153.909V10.392H146.213V9.592H154.261V7.992H144.117V14.392H154.373V12.792ZM143.941 19.56H152.037V22.392H154.149V17.896H143.941V19.56ZM142.453 15.288V16.968H155.781V15.288H142.453ZM167.396 11.096V12.184H164.772V11.096H167.396ZM162.708 13.16H159.908V11.56H162.708V13.16ZM164.772 13.784H167.396V15.208H169.508V7.656H167.396V9.496H164.772V8.248H162.708V9.976H159.908V8.248H157.812V14.808H164.772V13.784ZM161.892 20.568V19.704H169.508V15.768H159.78V17.4H167.412V18.184H159.812V22.2H169.924V20.568H161.892ZM179.811 11.448V13.16H182.115V18.392H184.227V7.64H182.115V11.448H179.811ZM180.787 14.84C178.467 14.056 177.459 12.248 177.459 10.504V10.312H180.323V8.632H172.403V10.312H175.299V10.52C175.299 12.376 174.243 14.312 171.827 15.096L172.899 16.776C174.611 16.2 175.763 15.032 176.419 13.576C177.059 14.904 178.147 15.96 179.763 16.488L180.787 14.84ZM176.627 20.44V17.496H174.515V22.12H184.563V20.44H176.627ZM13.6513 45H15.7793V40.056C15.7793 38.936 15.5873 37.288 15.4753 36.168H15.5393L16.4833 38.952L18.3233 43.928H19.6833L21.5073 38.952L22.4673 36.168H22.5473C22.4193 37.288 22.2433 38.936 22.2433 40.056V45H24.4033V33.144H21.7793L19.8113 38.696C19.5553 39.432 19.3473 40.216 19.0913 40.968H19.0113C18.7713 40.216 18.5473 39.432 18.2913 38.696L16.2753 33.144H13.6513V45ZM31.8516 45.224C34.7476 45.224 36.4276 43.608 36.4276 39.672V33.144H34.1556V39.88C34.1556 42.344 33.2596 43.176 31.8516 43.176C30.4756 43.176 29.6116 42.344 29.6116 39.88V33.144H27.2436V39.672C27.2436 43.608 28.9716 45.224 31.8516 45.224ZM42.6248 45.224C45.3608 45.224 46.9768 43.576 46.9768 41.64C46.9768 39.928 46.0328 39.016 44.5928 38.424L43.0408 37.768C42.0328 37.368 41.2008 37.064 41.2008 36.216C41.2008 35.432 41.8568 34.968 42.8968 34.968C43.8728 34.968 44.6568 35.32 45.4088 35.944L46.6088 34.456C45.6488 33.48 44.2728 32.936 42.8968 32.936C40.4968 32.936 38.8008 34.424 38.8008 36.36C38.8008 38.088 40.0008 39.048 41.2008 39.544L42.7848 40.216C43.8408 40.664 44.5608 40.936 44.5608 41.816C44.5608 42.648 43.9048 43.176 42.6728 43.176C41.6328 43.176 40.5128 42.648 39.6648 41.864L38.3048 43.496C39.4568 44.6 41.0408 45.224 42.6248 45.224ZM49.0732 45H56.5132V43.016H51.4412V39.848H55.6012V37.864H51.4412V35.128H56.3372V33.144H49.0732V45ZM63.4609 45.224C66.3569 45.224 68.0369 43.608 68.0369 39.672V33.144H65.7649V39.88C65.7649 42.344 64.8689 43.176 63.4609 43.176C62.0849 43.176 61.2209 42.344 61.2209 39.88V33.144H58.8529V39.672C58.8529 43.608 60.5809 45.224 63.4609 45.224ZM70.8857 45H73.0137V40.056C73.0137 38.936 72.8217 37.288 72.7097 36.168H72.7737L73.7177 38.952L75.5577 43.928H76.9177L78.7417 38.952L79.7017 36.168H79.7817C79.6537 37.288 79.4777 38.936 79.4777 40.056V45H81.6377V33.144H79.0137L77.0457 38.696C76.7897 39.432 76.5817 40.216 76.3257 40.968H76.2457C76.0057 40.216 75.7817 39.432 75.5257 38.696L73.5097 33.144H70.8857V45ZM92.8709 45.224C96.0069 45.224 98.1669 42.872 98.1669 39.032C98.1669 35.192 96.0069 32.936 92.8709 32.936C89.7349 32.936 87.5749 35.176 87.5749 39.032C87.5749 42.872 89.7349 45.224 92.8709 45.224ZM92.8709 43.176C91.1109 43.176 89.9909 41.56 89.9909 39.032C89.9909 36.488 91.1109 34.968 92.8709 34.968C94.6309 34.968 95.7509 36.488 95.7509 39.032C95.7509 41.56 94.6309 43.176 92.8709 43.176ZM100.479 45H102.847V40.2H107.055V38.216H102.847V35.128H107.775V33.144H100.479V45ZM118.296 45.224C119.832 45.224 121.096 44.616 122.072 43.48L120.824 42.008C120.184 42.696 119.4 43.176 118.376 43.176C116.504 43.176 115.288 41.624 115.288 39.048C115.288 36.504 116.632 34.968 118.424 34.968C119.32 34.968 120.008 35.384 120.616 35.96L121.848 34.456C121.08 33.656 119.88 32.936 118.376 32.936C115.384 32.936 112.872 35.224 112.872 39.128C112.872 43.08 115.304 45.224 118.296 45.224ZM128.058 45.224C131.194 45.224 133.354 42.872 133.354 39.032C133.354 35.192 131.194 32.936 128.058 32.936C124.922 32.936 122.762 35.176 122.762 39.032C122.762 42.872 124.922 45.224 128.058 45.224ZM128.058 43.176C126.298 43.176 125.178 41.56 125.178 39.032C125.178 36.488 126.298 34.968 128.058 34.968C129.818 34.968 130.938 36.488 130.938 39.032C130.938 41.56 129.818 43.176 128.058 43.176ZM135.667 45H142.851V43.016H138.035V33.144H135.667V45ZM149.012 45.224C152.148 45.224 154.308 42.872 154.308 39.032C154.308 35.192 152.148 32.936 149.012 32.936C145.876 32.936 143.716 35.176 143.716 39.032C143.716 42.872 145.876 45.224 149.012 45.224ZM149.012 43.176C147.252 43.176 146.132 41.56 146.132 39.032C146.132 36.488 147.252 34.968 149.012 34.968C150.772 34.968 151.892 36.488 151.892 39.032C151.892 41.56 150.772 43.176 149.012 43.176ZM156.62 45H158.988V40.52H160.636L163.068 45H165.708L162.94 40.152C164.3 39.624 165.196 38.52 165.196 36.744C165.196 34.024 163.228 33.144 160.748 33.144H156.62V45ZM158.988 38.648V35.032H160.524C162.044 35.032 162.892 35.464 162.892 36.744C162.892 38.008 162.044 38.648 160.524 38.648H158.988ZM170.812 45.224C173.548 45.224 175.164 43.576 175.164 41.64C175.164 39.928 174.22 39.016 172.78 38.424L171.228 37.768C170.22 37.368 169.388 37.064 169.388 36.216C169.388 35.432 170.044 34.968 171.084 34.968C172.06 34.968 172.844 35.32 173.596 35.944L174.796 34.456C173.836 33.48 172.46 32.936 171.084 32.936C168.684 32.936 166.988 34.424 166.988 36.36C166.988 38.088 168.188 39.048 169.388 39.544L170.972 40.216C172.028 40.664 172.748 40.936 172.748 41.816C172.748 42.648 172.092 43.176 170.86 43.176C169.82 43.176 168.7 42.648 167.852 41.864L166.492 43.496C167.644 44.6 169.228 45.224 170.812 45.224Z" fill="url(#paint0_linear_298_3696)"/>
<defs>
<linearGradient id="paint0_linear_298_3696" x1="2" y1="2" x2="186" y2="2" gradientUnits="userSpaceOnUse">
<stop stop-color="#D6A1FF"/>
<stop offset="1" stop-color="#6573EE"/>
</linearGradient>
</defs>
</svg>
