<svg width="161" height="80" viewBox="0 0 161 80" fill="none" xmlns="http://www.w3.org/2000/svg">
    <path fill="#fff" d="M0 0h161v80H0z"/>
    <path fill="#fff" stroke="url(#1oyaz21hja)" stroke-width="2" d="M7 6h147v68H7z"/>
    <path d="M73.03 34.332c1.68.048 4.944.048 5.82 0a4.068 4.068 0 0 0 0-.936c-.864-.024-3.324-.024-4.368 0 .972-.972 2.16-2.28 2.82-3.084.96-1.128 1.38-2.028 1.38-3.24 0-1.452-.984-2.616-2.808-2.616-1.392 0-2.304.588-2.904 1.74.264.228.588.408.924.504.408-.78.912-1.272 1.98-1.272 1.092 0 1.752.72 1.752 1.692 0 .984-.3 1.572-1.116 2.544a61.491 61.491 0 0 1-3.48 3.768 5.634 5.634 0 0 0 0 .9zM88.687 31.8c.276.036.792.036 1.02 0 .024-1.464.024-6.204 0-7.656-.252-.06-.78-.048-1.02 0a814.02 814.02 0 0 0 0 7.656zm-5.364-1.704c2.172 0 3.18-1.068 3.18-2.904 0-1.824-1.008-2.892-3.18-2.892s-3.18 1.068-3.18 2.892c0 1.836 1.008 2.904 3.18 2.904zm0-.876c-1.524 0-2.16-.768-2.16-2.028 0-1.248.636-2.016 2.16-2.016 1.512 0 2.16.768 2.16 2.016 0 1.26-.648 2.028-2.16 2.028zm-2.04 5.52c1.848.06 7.404.06 8.628 0a5.484 5.484 0 0 0 0-.888c-1.2-.024-5.652-.012-7.632 0 .024-.744.024-2.172 0-2.88a4.605 4.605 0 0 0-.996 0c-.036.744-.06 2.856 0 3.768z" fill="#444B66"/>
    <path d="M73.182 41.08c-.56-.08-1.968-.096-2.4 0-.016.704-.032 2.672-.032 4.944-.656 0-1.36 0-2.128.032a14.04 14.04 0 0 0 0 2.32c.656.032 1.392.032 2.112.032 0 3.088.016 6.16.048 7.072.56.048 1.904.064 2.4 0 .064-1.904.064-12.208 0-14.4zm-13.04.448a12.535 12.535 0 0 0 0 2.192c1.216.032 4.16.032 5.152 0v3.424c-1.968-.016-4.528 0-5.088.032a12.901 12.901 0 0 0 0 2.224c.688.016 3.248.032 5.088.016v4.992c.576.064 2.016.08 2.432 0 .096-1.856.064-11.024-.048-12.88-1.408-.08-6.256-.064-7.536 0zm27.535 4.576c.048-.736.048-1.232 0-1.856-.432-.016-1.152-.016-2.048-.032v-1.12c.8-.016 1.472-.016 1.888-.032.032-.704.032-1.264 0-1.856-1.488-.064-9.36-.048-12.016 0a11.977 11.977 0 0 0 0 1.856c.4.016 1.056.016 1.872.032v1.12c-.896.016-1.632.016-2.032.032-.048.624-.048 1.2 0 1.856 1.888.064 10.272.064 12.336 0zm-7.952-1.888v-1.104h3.552V44.2c-1.152 0-2.4 0-3.552.016zm8.656 2.512c-1.504-.032-10.432-.064-13.76 0a9.147 9.147 0 0 0 0 1.872c1.888.064 12.384.096 13.76 0a9.144 9.144 0 0 0 0-1.872zm-.56 7.024h-9.904v-.512h9.536c.08-.688.08-3.376 0-4-1.968-.048-7.264-.048-11.92 0-.064.368-.064 1.264 0 1.792h9.504v.512H75.5a32.687 32.687 0 0 0 0 3.984c2.048.096 11.28.08 12.32 0 .032-.512.064-1.248 0-1.776zm9.422-4.432a15.04 15.04 0 0 0 0 2.08c.496.032 1.936.048 2.976.016.016.432.016.784.016 1.024.56.032 1.888.064 2.384 0 .048-1.936.048-9.376 0-11.36-.56-.096-1.952-.096-2.384 0-.016 1.152-.032 5.2-.016 8.24a90.187 90.187 0 0 0-2.976 0zm-1.056-5.904c.016.528.016 1.808 0 2.352.576.064 1.76.064 2.336 0 .064-1.056.064-3.376 0-4.432-1.408-.08-7.104-.064-8.384 0a11.29 11.29 0 0 0 0 2.08c1.216.032 5.056.032 6.048 0zm-2.704 7.936c.64.048 1.824.064 2.384 0 .032-.512.016-1.792.016-2.688 1.696 0 3.12-.016 3.488-.048.064-.608.064-1.408 0-2.08-1.376-.064-8.688-.064-10.016 0a9.042 9.042 0 0 0 0 2.08c.928.032 2.496.032 4.112.048-.016.912-.016 2.144.016 2.688zm9.408 2.096c-1.2-.032-6.48-.016-10.016 0 .016-.56.016-2.176 0-2.624-.576-.048-1.888-.048-2.384 0-.048.784-.08 3.36 0 4.704 1.456.08 11.12.08 12.4 0a11.29 11.29 0 0 0 0-2.08z" fill="url(#tifn4kqnjb)"/>
    <defs>
        <linearGradient id="1oyaz21hja" x1="8" y1="7" x2="153" y2="7" gradientUnits="userSpaceOnUse">
            <stop stop-color="#D6A1FF"/>
            <stop offset="1" stop-color="#6573EE"/>
        </linearGradient>
        <linearGradient id="tifn4kqnjb" x1="59" y1="23" x2="104" y2="23" gradientUnits="userSpaceOnUse">
            <stop stop-color="#D6A1FF"/>
            <stop offset="1" stop-color="#6573EE"/>
        </linearGradient>
    </defs>
</svg>
