<svg width="161" height="80" viewBox="0 0 161 80" fill="none" xmlns="http://www.w3.org/2000/svg">
    <path fill="#fff" d="M0 0h161v80H0z"/>
    <path fill="#fff" stroke="url(#w1tisitsda)" stroke-width="2" d="M7 6h147v68H7z"/>
    <path d="M63.063 27.12c-.24-.012-.768-.024-1.236-.012 0-1.236 0-2.376-.012-2.964-.252-.06-.78-.048-1.02 0-.012 1.32-.012 6.252 0 7.668.276.036.792.048 1.02 0 .012-.72.012-2.244.012-3.768.48.012 1.02.012 1.236-.012.024-.276.024-.66 0-.912zm-4.392 2.652c.06-1.128.06-4.068 0-5.352-1.032-.048-4.92-.048-5.808 0-.048 1.2-.048 4.068 0 5.352 1.056.06 4.884.048 5.808 0zm-4.824-4.476c1.068-.012 2.964-.024 3.852 0 .024.66.024 2.964 0 3.6-.912.036-2.952.024-3.852 0-.024-.66-.024-2.94 0-3.6zm.624 8.556c.012-.744.012-2.208 0-2.916a4.716 4.716 0 0 0-1.008 0c-.024.744-.048 2.892 0 3.804 1.836.06 7.344.06 8.544 0a3.664 3.664 0 0 0 0-.888c-1.176-.024-5.58-.012-7.536 0zm10.007-6.264c1.224.036 7.392.048 8.448 0a3.277 3.277 0 0 0 0-.84c-1.02-.012-6.504 0-7.44 0v-1.632c.888.024 6.36.024 7.32 0a2.468 2.468 0 0 0 0-.84c-1.08-.036-7.116-.06-8.328 0-.06.792-.072 2.496 0 3.312zm-.852 1.752c2.232.048 8.232.036 10.152 0a2.398 2.398 0 0 0 0-.828c-1.944-.024-7.56-.036-10.152 0a2.398 2.398 0 0 0 0 .828zm.732 5.436c1.488.072 8.172.06 8.928 0 .024-.24.036-.552 0-.804h-7.932v-1.008h7.656c.048-.516.048-2.112 0-2.628-1.656-.036-6.096-.036-8.628 0-.048.18-.048.576 0 .828h7.632v.984h-7.656c-.06.864-.036 1.98 0 2.628zm19.019 0c.276.036.78.048 1.008 0 .036-1.428.048-9.084 0-10.632-.252-.06-.78-.06-1.008 0-.036 1.464-.048 9.204 0 10.632zm-3.852-.804c.252.048.816.06 1.032 0 .072-1.308.048-8.004-.036-9.42-1.272-.06-4.716-.048-5.7 0-.048.252-.048.66 0 .924.96.024 3.924.024 4.704 0 .012.876 0 7.368 0 8.496zm18.37-3.852a3.565 3.565 0 0 0 0-.876c-.492-.012-1.2-.012-2.016-.024.012-1.044.012-2.664 0-3.672.768-.012 1.428-.012 1.896-.024a5.333 5.333 0 0 0 0-.876c-1.752-.036-6.888-.036-8.94 0a3.566 3.566 0 0 0 0 .876c.456.012 1.116.012 1.872.024-.012 1.02-.012 2.628 0 3.672-.816.012-1.512.012-1.992.024-.036.264-.036.6 0 .876 1.908.036 7.224.036 9.18 0zm-6.18-4.572h3.156c-.012 1.02-.012 2.616 0 3.672h-3.156c.012-1.056.012-2.652 0-3.672zm6.66 7.98c-.6-.012-2.508-.024-4.56-.024.012-.864.024-2.184 0-2.724-.276-.036-.768-.048-1.032 0-.024.504-.024 1.848-.012 2.724-1.884 0-3.708 0-4.548.024-.048.264-.048.6 0 .888 1.536.036 8.928.048 10.152 0a2.754 2.754 0 0 0 0-.888zm7.739-7.752a3.47 3.47 0 0 0 0-.864c-.432-.012-1.596-.024-2.856-.024.012-.36 0-.78-.012-1.02-.288-.048-.816-.048-1.044 0-.024.24-.036.66-.024 1.02-1.404 0-2.712.012-3.06.024a3.47 3.47 0 0 0 0 .864c.816.024 6.072.024 6.996 0zm3.624.936c-.24-.012-.768-.024-1.236-.012 0-1.044 0-2.016-.012-2.556-.252-.06-.78-.048-1.02 0-.012 1.14-.012 5.076 0 6.312.276.036.792.036 1.02 0 .012-.588.012-1.68.012-2.82.48.012 1.02.012 1.236-.012.024-.276.024-.66 0-.912zm-7.02 3.54c2.184 0 3.192-.516 3.192-1.968 0-1.44-.972-1.968-3.192-1.968-2.184 0-3.192.516-3.192 1.968 0 1.44.972 1.968 3.192 1.968zm0-3.096c1.62 0 2.22.372 2.22 1.128 0 .756-.588 1.128-2.22 1.128-1.62 0-2.22-.372-2.22-1.128 0-.756.588-1.128 2.22-1.128zm-2.76 3.912c-.036 1.176-.06 2.46 0 3.672 1.392.072 7.176.072 8.52 0 .048-1.068.048-2.58 0-3.672-1.188-.036-7.188-.048-8.52 0zm7.512 2.796c-.828.036-5.652.036-6.504 0a20.748 20.748 0 0 1 0-1.932c.924-.024 5.616-.036 6.504 0 .024.588.024 1.392 0 1.932z" fill="#444B66"/>
    <path d="M49.611 44.6c.896-.016 1.696-.016 2.24-.032.048-.56.048-1.488 0-2.096-.752-.016-1.504-.032-2.24-.032.016-.592 0-1.168-.016-1.52-.56-.096-2.08-.08-2.512 0-.016.352-.032.928-.032 1.52-.912 0-1.696.016-2.208.032a11.459 11.459 0 0 0 0 2.096c.432.016 1.264.032 2.224.032-.016.944-.032 2.352-.016 3.664a436.744 436.744 0 0 0-2.656 5.504c.416.336 1.424.816 1.936.928.496-.912 1.248-2.448 2.016-4.112.8 1.6 1.568 3.088 2.08 3.936.592-.16 1.52-.688 1.92-1.088-.72-1.44-1.728-3.296-2.72-5.136.016-1.28 0-2.704-.016-3.696zm8.528-3.52c-.48-.096-1.856-.096-2.288 0-.016 1.68-.032 12.464 0 14.4.56.032 1.856.064 2.288 0 .032-1.936.032-12.4 0-14.4zm-5.424.08c-.016.672-.032 2.8-.032 5.216-.736 0-1.44 0-1.872.016-.048.368-.048 1.744 0 2.208.448.016 1.152.032 1.856.032 0 2.928.016 5.792.048 6.704.56.048 1.856.048 2.288 0 .016-1.904.048-12.16 0-14.176-.48-.08-1.856-.096-2.288 0zm15.63 2.64c.049-.544.033-1.456 0-2.016a135.26 135.26 0 0 0-3.103-.032c0-.32 0-.64-.016-.912-.64-.096-2.08-.096-2.512 0-.016.272-.032.592-.032.912-1.648 0-3.04.016-3.36.032a10.608 10.608 0 0 0 0 2.016c.944.032 7.632.032 9.024 0zm1.92 2.688c0 1.36.017 2.576.033 3.104.56.048 1.888.064 2.384 0 .048-1.584.032-6.784 0-8.512-.56-.08-1.952-.064-2.384 0-.016.496-.032 1.744-.032 3.152-.592 0-1.152 0-1.504.016-.048.608-.048 1.6 0 2.208.368.016.912.032 1.504.032zm-2.015.384c0-1.936-1.152-2.672-4.288-2.672-2.992 0-4.288.656-4.288 2.672 0 1.936 1.152 2.672 4.288 2.672 2.992 0 4.288-.656 4.288-2.672zm-6.336 0c0-.512.416-.784 2.048-.784 1.568 0 2.048.272 2.048.784 0 .528-.416.8-2.048.8-1.568 0-2.048-.272-2.048-.8zm10.768 3.44c-.432-.048-10.896-.064-11.888 0-.048 1.616-.08 3.472 0 5.216 1.248.112 10.816.096 11.888 0 .064-1.2.064-3.952 0-5.216zm-2.352 3.216c-.672.032-6.448.048-7.184 0-.048-.64-.032-.704 0-1.2 1.056-.032 6.288-.048 7.184 0 .032.576.032.736 0 1.2zM87.577 41.08c-.48-.096-1.856-.096-2.288 0 0 .672-.016 2.848-.016 5.312h-.912c0-2.352-.016-4.432-.032-5.232-.48-.08-1.856-.096-2.288 0-.048 1.68-.064 12.24 0 14.176.56.048 1.856.048 2.288 0 0-.912.016-3.776.016-6.72h.928c0 2.992 0 5.936.016 6.864.56.032 1.856.064 2.288 0 .032-1.936.032-12.4 0-14.4zm-7.024 11.248c.016-2.544.032-6.24 0-8.72.272 0 .544-.016.784-.016.032-.704.032-1.472 0-2.064-1.488-.064-4.48-.048-7.136 0-.048.592-.048 1.44 0 2.064.24.016.512.016.784.016-.032 2.48-.016 6.176 0 8.72-.336 0-.64.016-.912.016a14.808 14.808 0 0 0 0 2.064c1.888.064 5.328.064 7.392 0 .048-.736.048-1.44 0-2.064-.272-.016-.592-.016-.912-.016zm-2.24-.032h-1.088c.016-2.528.016-6.192 0-8.656h1.088a780.465 780.465 0 0 0 0 8.656zm23.806-11.216c-.56-.08-1.968-.096-2.4 0-.048 1.856-.064 12.544 0 14.4.56.048 1.904.064 2.4 0 .064-1.904.064-12.208 0-14.4zm-13.04.448a12.535 12.535 0 0 0 0 2.192c1.216.032 4.48.032 5.472 0v3.424c-2.064-.016-4.848 0-5.408.032a12.901 12.901 0 0 0 0 2.224c.704.032 3.472.032 5.408.016v4.992c.576.064 2.016.08 2.432 0 .096-1.856.064-11.024-.048-12.88-1.408-.08-6.576-.064-7.856 0zm27.599-.448c-.56-.08-1.968-.096-2.4 0-.048 1.856-.064 12.544 0 14.4.56.048 1.904.064 2.4 0 .064-1.904.064-12.208 0-14.4zm-7.232 2.608c1.296-.016 2.464-.016 3.056-.032.048-.56.048-1.52 0-2.128a256.34 256.34 0 0 0-8.672 0 11.81 11.81 0 0 0 0 2.128c.464.032 1.68.032 3.072.032-.016 1.056-.032 2.528-.016 3.824a295.133 295.133 0 0 0-3.472 5.968c.4.4 1.424 1.008 1.984 1.152.624-.992 1.76-2.976 2.816-4.912 1.056 1.648 2.096 3.2 3.12 4.592.72-.288 1.376-.768 1.808-1.344-.88-1.344-2.4-3.552-3.68-5.376.016-1.28 0-2.8-.016-3.904z" fill="url(#5gbekyefjb)"/>
    <defs>
        <linearGradient id="w1tisitsda" x1="8" y1="7" x2="153" y2="7" gradientUnits="userSpaceOnUse">
            <stop stop-color="#D6A1FF"/>
            <stop offset="1" stop-color="#6573EE"/>
        </linearGradient>
        <linearGradient id="5gbekyefjb" x1="44" y1="23" x2="118" y2="23" gradientUnits="userSpaceOnUse">
            <stop stop-color="#D6A1FF"/>
            <stop offset="1" stop-color="#6573EE"/>
        </linearGradient>
    </defs>
</svg>
