<svg width="161" height="80" viewBox="0 0 161 80" fill="none" xmlns="http://www.w3.org/2000/svg">
    <path fill="#fff" d="M0 0h161v80H0z"/>
    <path fill="#fff" stroke="url(#rqlx1a2apa)" stroke-width="2" d="M7 6h147v68H7z"/>
    <path d="M67.89 34.512c1.764 0 3.012-1.032 3.012-2.844 0-1.356-.588-2.196-1.584-2.496.84-.336 1.296-1.128 1.296-2.16 0-1.476-.972-2.556-2.748-2.556-1.5 0-2.316.708-2.676 1.644.264.168.648.312.984.36.228-.66.852-1.056 1.692-1.056 1.08 0 1.704.672 1.704 1.656 0 1.056-.684 1.656-1.488 1.656h-.912a3.864 3.864 0 0 0 0 .912h.912c1.02 0 1.776.708 1.776 1.98 0 1.164-.696 1.932-1.968 1.932-1.152 0-1.752-.48-2.064-1.308-.36.072-.672.168-.984.336.432 1.176 1.212 1.944 3.048 1.944zm4.704-4.632c1.296.036 4.8.036 6.108 0a3.217 3.217 0 0 0 0-.96c-1.296-.036-4.8-.036-6.108 0a4.28 4.28 0 0 0 0 .96zm14.349 1.332c-.228 0-.769-.012-1.416-.012.011-2.352 0-5.304-.025-6.6a6.286 6.286 0 0 0-1.163 0c-.924 1.44-3.085 5.016-4.044 6.624a5.634 5.634 0 0 0 0 .9c.671.024 2.591.024 4.2.024.011 1.008.011 1.836.023 2.22.24.048.733.048.984 0 .013-.372.025-1.188.025-2.22.683-.012 1.212-.012 1.415-.024a3.864 3.864 0 0 0 0-.912zm-5.52 0c.791-1.272 2.483-4.032 3.096-5.136-.013.636-.025 3.036-.025 5.124-1.296 0-2.688 0-3.072.012zm15.115.588c.276.036.793.036 1.02 0 .024-1.464.024-6.204 0-7.656-.252-.06-.78-.048-1.02 0a814.02 814.02 0 0 0 0 7.656zm-5.364-1.704c2.172 0 3.18-1.068 3.18-2.904 0-1.824-1.007-2.892-3.18-2.892-2.172 0-3.18 1.068-3.18 2.892 0 1.836 1.008 2.904 3.18 2.904zm0-.876c-1.524 0-2.16-.768-2.16-2.028 0-1.248.636-2.016 2.16-2.016 1.512 0 2.16.768 2.16 2.016 0 1.26-.648 2.028-2.16 2.028zm-2.04 5.52c1.849.06 7.404.06 8.629 0a5.484 5.484 0 0 0 0-.888c-1.2-.024-5.653-.012-7.633 0 .025-.744.025-2.172 0-2.88a4.605 4.605 0 0 0-.995 0c-.037.744-.06 2.856 0 3.768z" fill="#444B66"/>
    <path d="M74.094 46.392a31.12 31.12 0 0 0-1.424-.032c0-2.336-.016-4.432-.048-5.28-.56-.08-1.968-.096-2.4 0-.048 1.856-.064 12.544 0 14.4.56.048 1.904.064 2.4 0 .032-.912.048-3.792.048-6.768.672 0 1.168-.016 1.424-.048.064-.608.064-1.664 0-2.272zM60.11 41.528a12.535 12.535 0 0 0 0 2.192c1.216.032 4.512.032 5.504 0 .016 1.168 0 9.504 0 10.688.576.064 2.016.08 2.432 0 .096-1.856.064-11.024-.048-12.88-1.408-.08-6.608-.064-7.888 0zm15.167 3.744c.064.672.368 1.472.72 1.904.976-.208 3.456-.88 5.536-1.536 2.064.608 4.544 1.264 5.536 1.472.336-.512.592-1.248.672-1.904-1.264-.352-3.2-.848-4.944-1.312v-.688c2.048 0 3.904-.016 4.56-.032.048-.56.048-1.36 0-1.968-2.864-.064-10.4-.032-11.696 0a10.104 10.104 0 0 0 0 1.968c.496.032 2.4.032 4.544.032v.688c-1.76.464-3.68 1.008-4.928 1.376zm13.104 2.544c-.704-.016-3.024-.032-5.632-.032 0-.512 0-.992-.016-1.456-.592-.08-1.968-.096-2.448 0a36.7 36.7 0 0 0-.032 1.456c-2.208 0-4.336 0-5.632.032a10.437 10.437 0 0 0 0 2c1.888.064 12.384.096 13.76 0 .064-.624.064-1.44 0-2zm-12.928 2.928a10.777 10.777 0 0 0 0 2.032c1.2.048 6.064 0 9.6 0 0 .976-.032 1.936 0 2.752.576.032 1.872.032 2.448 0 .048-.784.096-3.456 0-4.784-1.456-.08-10.768-.064-12.048 0zm21.79-1.424a15.04 15.04 0 0 0 0 2.08c.496.032 1.936.048 2.976.016.016.432.016.784.016 1.024.56.032 1.888.064 2.384 0 .048-1.936.048-9.376 0-11.36-.56-.096-1.952-.096-2.384 0-.016 1.152-.032 5.2-.016 8.24a90.187 90.187 0 0 0-2.976 0zm-1.056-5.904c.016.528.016 1.808 0 2.352.576.064 1.76.064 2.336 0 .064-1.056.064-3.376 0-4.432-1.408-.08-7.104-.064-8.384 0a11.29 11.29 0 0 0 0 2.08c1.216.032 5.056.032 6.048 0zm-2.704 7.936c.64.048 1.824.064 2.384 0 .032-.512.016-1.792.016-2.688 1.696 0 3.12-.016 3.488-.048.064-.608.064-1.408 0-2.08-1.376-.064-8.688-.064-10.016 0a9.042 9.042 0 0 0 0 2.08c.928.032 2.496.032 4.112.048-.016.912-.016 2.144.016 2.688zm9.408 2.096c-1.2-.032-6.48-.016-10.016 0 .016-.56.016-2.176 0-2.624-.576-.048-1.888-.048-2.384 0-.048.784-.08 3.36 0 4.704 1.456.08 11.12.08 12.4 0a11.29 11.29 0 0 0 0-2.08z" fill="url(#shu9ixmenb)"/>
    <defs>
        <linearGradient id="rqlx1a2apa" x1="8" y1="7" x2="153" y2="7" gradientUnits="userSpaceOnUse">
            <stop stop-color="#D6A1FF"/>
            <stop offset="1" stop-color="#6573EE"/>
        </linearGradient>
        <linearGradient id="shu9ixmenb" x1="59" y1="23" x2="104" y2="23" gradientUnits="userSpaceOnUse">
            <stop stop-color="#D6A1FF"/>
            <stop offset="1" stop-color="#6573EE"/>
        </linearGradient>
    </defs>
</svg>
