<svg width="181" height="26" viewBox="0 0 181 26" fill="none" xmlns="http://www.w3.org/2000/svg">
    <path d="M4.57 13.232c.658 0 1.12-.448 1.12-1.176 0-.672-.518-1.078-1.12-1.078-.056 0-.098 0-.154.014 0-.896.462-1.498 1.372-1.988l-.476-.91c-1.4.728-2.1 1.806-2.1 3.234 0 1.204.476 1.904 1.358 1.904zm11.847.588h1.848V7.296h-1.848v2.772h-2.198v1.47h2.198v2.282zM8.423 7.87v1.428h3.822a4.05 4.05 0 0 1-.154.714l-4.312.154.252 1.4 3.262-.252c-.714.7-1.834 1.26-3.57 1.638l.644 1.4c4.116-.98 5.824-3.01 5.824-6.482H8.423zM11.6 18.622v-.812h6.664v-3.486H9.767v1.414h6.678v.742H9.78v3.57h8.75v-1.428H11.6zm11.03-5.39h3.963v-4.83h-5.81v1.47h3.976v1.918h-3.948v5.46h1.064c2.142 0 3.85-.07 5.768-.378l-.168-1.498c-1.624.266-3.094.35-4.844.364v-2.506zm6.665-5.936v4.648H27.28v1.498h2.016v6.79h1.862V7.296h-1.862zm4.913 5.768c1.4-.714 2.1-1.806 2.1-3.248 0-1.19-.476-1.89-1.358-1.89-.644 0-1.12.462-1.12 1.176 0 .672.518 1.078 1.12 1.078.056 0 .098 0 .154-.014 0 .91-.462 1.498-1.372 2.002l.476.896zM46.223 9.41h-6.972v3.08h9.016v-1.246h-7.196v-.672h6.972V7.534h-8.82V8.78h7v.63zm-5.264 8.736h7.126V15.08h-8.974v1.246h7.14v.658h-7.126v3.108h9.31v-1.246H40.96v-.7zm-3.164-5.04v1.33h11.676v-1.33H37.795zm17.283.588c2.254-.308 3.836-1.274 4.606-2.59.77 1.316 2.352 2.282 4.606 2.59l.658-1.442c-2.618-.322-3.976-1.582-4.158-2.814h3.654v-1.47h-9.562v1.47h3.71c-.182 1.232-1.554 2.492-4.186 2.814l.672 1.442zm10.43.742H53.86v1.47h4.858v4.326h1.848v-4.326h4.942v-1.47zm5.305-4.34h1.876V8.598h-5.74v1.498h2.072v.63c0 2.212-.672 4.522-2.548 5.712l1.092 1.358c1.162-.728 1.918-1.988 2.366-3.458.42 1.358 1.162 2.464 2.296 3.15l1.078-1.344c-1.862-1.092-2.492-3.262-2.492-5.418v-.63zm2.618 1.61h-1.638v1.498h1.638v6.412h1.722V7.52h-1.722v4.186zm2.604-4.41V20.19h1.75V7.296h-1.75zm10.317 9.982V15.36h3.906v-1.484h-7.476v-1.442h7.182V8.136h-9.03v1.47h7.21v1.386h-7.196v4.368h3.556v1.918h-4.9v1.512H91.28v-1.512h-4.928zm16.905-8.61h-2.884V7.296h-1.862v1.372h-2.856v1.442h7.588l.014-1.442zm-5.208 4.382c0-.7.574-1.078 1.4-1.078.812 0 1.4.378 1.4 1.078 0 .714-.588 1.092-1.4 1.092-.826 0-1.4-.378-1.4-1.092zm4.564 0c0-1.456-1.316-2.478-3.164-2.478s-3.164 1.022-3.164 2.478c0 1.484 1.316 2.492 3.164 2.492s3.164-1.008 3.164-2.492zm-3.276 3.192h-1.848v3.738h8.778v-1.47h-6.93v-2.268zm6.468-4.998V7.31h-1.848v9.646h1.848V12.77h1.708v-1.526h-1.708zm8.953-1.694h1.302v3.094l-1.302.042V9.55zm4.536 2.828c-.476.07-.966.098-1.47.14V9.55h1.022V8.08h-6.874v1.47h1.008v3.178h-1.344l.196 1.498c2.128 0 5.04-.056 7.588-.504l-.126-1.344zm.728 6.202h-4.76v-1.092h4.76v1.092zm0-2.506h-4.76v-1.106h-1.82v5.082h8.414v-5.082h-1.834v1.106zm3.542-5.992h-1.708V7.31h-1.848v7.168h1.848v-2.884h1.708v-1.512zm9.966 8.498h-4.872v-1.148h4.872v1.148zm0-2.548h-4.872V14.8h-1.834v5.25h8.54V14.8h-1.834v1.232zm-5.39-3.57c-.938 0-1.624-.574-1.624-1.54 0-.966.686-1.54 1.624-1.54.952 0 1.638.574 1.638 1.54 0 .966-.686 1.54-1.638 1.54zm5.376-5.152v2.842h-2.058c-.364-1.372-1.68-2.31-3.318-2.31-1.932 0-3.388 1.288-3.388 3.08s1.456 3.08 3.388 3.08c1.666 0 2.982-.952 3.332-2.352h2.044v2.59h1.848V7.31h-1.848zm15.589 4.354h-5.306V9.382h5.306v2.282zm1.806-3.752h-8.932v5.208h8.932V7.912zm1.4 6.58h-11.676v1.47h2.674v4.284h1.834v-4.284h2.702v4.284h1.848v-4.284h2.618v-1.47zm6.187-4.424h2.66V8.542h-7.224v1.526h2.688v.714c0 2.198-1.05 4.564-3.206 5.53l1.05 1.47c1.512-.686 2.548-2.1 3.122-3.78.574 1.554 1.596 2.814 3.094 3.458l1.008-1.456c-2.156-.896-3.192-3.122-3.192-5.222v-.714zm3.85-2.758v12.894h1.848V7.31h-1.848zm8.063 9.324h4.956v1.974h-4.956v-1.974zm-1.82 3.416h8.582v-4.858h-8.582v4.858zm1.358-7.336c-.938 0-1.624-.602-1.624-1.61 0-.98.686-1.554 1.624-1.554.952 0 1.638.574 1.638 1.554 0 1.008-.686 1.61-1.638 1.61zm5.376-5.404v3.038h-2.058c-.35-1.4-1.666-2.366-3.318-2.366-1.918 0-3.388 1.316-3.388 3.122 0 1.848 1.47 3.15 3.388 3.15 1.666 0 2.982-.966 3.332-2.408h2.044v2.772h1.848V7.31h-1.848z" fill="url(#m7u0597t7a)"/>
    <defs>
        <linearGradient id="m7u0597t7a" x1="2" y1="2" x2="179" y2="2" gradientUnits="userSpaceOnUse">
            <stop stop-color="#D6A1FF"/>
            <stop offset="1" stop-color="#6573EE"/>
        </linearGradient>
    </defs>
</svg>
