<svg width="159" height="28" viewBox="0 0 159 28" fill="none" xmlns="http://www.w3.org/2000/svg">
    <path d="M6.718 17.272c-1.104 0-1.84-1.168-1.84-3.36 0-2.176.736-3.344 1.84-3.344 1.088 0 1.84 1.168 1.84 3.344 0 2.192-.752 3.36-1.84 3.36zm0-8.608c-2.24 0-3.872 2.016-3.872 5.248 0 3.248 1.632 5.28 3.872 5.28 2.224 0 3.872-2.032 3.872-5.28 0-3.232-1.648-5.248-3.872-5.248zm9.728 4.528h-2.144V7.64H12.19v14.736h2.112v-7.44h2.144v-1.744zm14.367 2.224H28.86c.496-2.4.496-4.112.496-5.632V8.456h-10.32v1.68h8.288c0 .48 0 .976-.032 1.504l-8.736.272.24 1.792 8.352-.432a20.82 20.82 0 0 1-.368 2.144H17.5v1.712h5.584v5.216h2.112v-5.216h5.616v-1.712zm5.343 1.856c-1.104 0-1.84-1.168-1.84-3.36 0-2.176.736-3.344 1.84-3.344 1.088 0 1.84 1.168 1.84 3.344 0 2.192-.752 3.36-1.84 3.36zm0-8.608c-2.24 0-3.872 2.016-3.872 5.248 0 3.248 1.632 5.28 3.872 5.28 2.224 0 3.872-2.032 3.872-5.28 0-3.232-1.648-5.248-3.872-5.248zm9.728 4.528H43.74V7.64h-2.112v14.736h2.112v-7.44h2.144v-1.744zm3.982 1.392h4.784V8.888h-6.96v1.68h4.8v2.352h-4.784v6.064h1.328c2.672 0 4.832-.096 7.232-.512l-.224-1.712c-2.08.352-3.936.464-6.176.48v-2.656zm7.2-6.96v14.784h2.112V7.624h-2.112zm11.231 1.84c2.016 0 3.168.4 3.168 1.232 0 .816-1.152 1.232-3.168 1.232-2 0-3.152-.416-3.152-1.232 0-.832 1.152-1.232 3.152-1.232zm0 4.048c3.248 0 5.344-1.056 5.344-2.816 0-1.776-2.096-2.832-5.344-2.832S62.97 8.92 62.97 10.696c0 1.76 2.08 2.816 5.328 2.816zm2.992 7.04h-6.032v-1.696h6.032v1.696zm3.664-4.608v-1.68H61.641v1.68h5.6v1.264h-4.048V22.2H73.37v-4.992h-4.016v-1.264h5.6zm8.376-1.12a85.28 85.28 0 0 0 1.008-3.872h.08c.336 1.28.656 2.64 1.024 3.872l.352 1.296h-2.816l.352-1.296zM79.233 21h2.4l.832-3.04h3.84l.832 3.04h2.48L85.809 9.144h-2.784L79.233 21zm17.018 3.44h2.336v-12.4h-1.84l-.192.88h-.064c-.72-.752-1.44-1.104-2.432-1.104-1.936 0-3.76 1.792-3.76 4.704 0 2.944 1.44 4.704 3.664 4.704.88 0 1.76-.448 2.368-1.072l-.08 1.44v2.848zm-1.68-5.152c-1.184 0-1.856-.928-1.856-2.784 0-1.792.848-2.752 1.856-2.752.56 0 1.136.176 1.68.672v3.936c-.528.672-1.056.928-1.68.928zm9.209 1.936c1.216 0 2.08-.592 2.848-1.504h.064l.176 1.28h1.92v-8.96h-2.352v6.048c-.608.8-1.088 1.12-1.824 1.12-.864 0-1.248-.496-1.248-1.872V12.04h-2.352v5.6c0 2.24.832 3.584 2.768 3.584zm9.723 0c1.024 0 1.92-.512 2.704-1.184h.064l.16.96h1.92v-5.232c0-2.592-1.168-3.952-3.44-3.952-1.408 0-2.688.528-3.744 1.184l.848 1.552c.832-.48 1.632-.848 2.464-.848 1.104 0 1.488.672 1.536 1.552-3.616.384-5.168 1.392-5.168 3.312 0 1.52 1.056 2.656 2.656 2.656zm.768-1.84c-.688 0-1.184-.304-1.184-1.008 0-.8.736-1.408 2.928-1.68v1.808c-.576.56-1.072.88-1.744.88zM120.748 21h2.352v-5.344c.496-1.296 1.344-1.76 2.048-1.76.368 0 .624.048.944.144l.4-2.032c-.272-.112-.56-.192-1.056-.192-.928 0-1.888.64-2.544 1.808h-.048l-.176-1.584h-1.92V21zm6.969 0h2.352v-8.96h-2.352V21zm1.184-10.4c.8 0 1.36-.512 1.36-1.296 0-.768-.56-1.28-1.36-1.28-.816 0-1.376.512-1.376 1.28 0 .784.56 1.296 1.376 1.296zm6.348 10.624c1.216 0 2.08-.592 2.848-1.504h.064l.176 1.28h1.92v-8.96h-2.352v6.048c-.608.8-1.088 1.12-1.824 1.12-.864 0-1.248-.496-1.248-1.872V12.04h-2.352v5.6c0 2.24.831 3.584 2.768 3.584zm7.515-.224h2.352v-6.16c.624-.672 1.2-1.008 1.712-1.008.848 0 1.264.48 1.264 1.872V21h2.336v-6.16c.64-.672 1.216-1.008 1.728-1.008.848 0 1.248.48 1.248 1.872V21h2.352v-5.584c0-2.256-.88-3.6-2.784-3.6-1.168 0-2.032.704-2.848 1.568-.432-.992-1.184-1.568-2.464-1.568-1.168 0-2 .64-2.752 1.424h-.048l-.176-1.2h-1.92V21z" fill="url(#azmrvihnha)"/>
    <defs>
        <linearGradient id="azmrvihnha" x1="2" y1="2" x2="157" y2="2" gradientUnits="userSpaceOnUse">
            <stop stop-color="#D6A1FF"/>
            <stop offset="1" stop-color="#6573EE"/>
        </linearGradient>
    </defs>
</svg>
