<svg width="72" height="72" viewBox="0 0 72 72" fill="none" xmlns="http://www.w3.org/2000/svg">
    <path d="M15.036 18.49a1.433 1.433 0 1 0 2.686-1 1.433 1.433 0 0 0-2.686 1zm1.97-.68a.805.805 0 1 1-1.037-.466.806.806 0 0 1 1.022.466h.016zM31.421 59.105a1.159 1.159 0 1 0 2.239.601 1.159 1.159 0 0 0-2.239-.601zm1.713.31a.636.636 0 0 1-.776.444.63.63 0 1 1 .776-.444zM36.553 66.78a.824.824 0 1 0-.133 1.643.824.824 0 0 0 .133-1.643zm0 1.238a.451.451 0 0 1-.315-.726.448.448 0 1 1 .315.726zM19.1 16.373a1.023 1.023 0 1 0 1.973.542 1.023 1.023 0 0 0-1.973-.542zm1.512.27a.557.557 0 1 1-1.078-.28.557.557 0 0 1 1.078.28zM35.005 26.748c.14-.378-.299-1.075-.496-1.302a2.642 2.642 0 0 0-.563-.495c-.039-.027-.438-.288-.473-.258a2.13 2.13 0 0 0 .733-1.302 2.586 2.586 0 0 0-.093-.82c.185.005.37-.008.552-.038a1.1 1.1 0 0 0 .645-.409c.163-.24.179-.568-.153-.675-.29-.1-1.433-.161-1.685 0l-.056.036c-.863-.914-2.311-1.634-3.794-1.806a5.306 5.306 0 0 0-2.115.157.95.95 0 0 1 .115-.274 2.89 2.89 0 0 1 .582-.673c.093-.067.19-.127.29-.18.135-.078.472-.222.46-.415-.031-.468-1.163-.027-1.378.04-.433.12-.82.362-1.12.696-.39.473-.373.83-.092 1.356-.428.288-.774.681-1.006 1.142-.504.249-1.343-.233-1.792-.27-.744-.053-1.613.596-.996 1.37.51.63 1.598.485 2.297.372l.26-.05c.052.382.186.749.392 1.075-.213.199-.477.305-.577.627-.31.966.383 2.091 1.075 2.734.23.213 1.408 1.457 1.655.88.162-.373-.451-.87-.613-1.154a3.778 3.778 0 0 1-.433-1.254.979.979 0 0 1 .06-.658 5.195 5.195 0 0 0 2.194.756 6.787 6.787 0 0 0 3.117-.381c.162.223.371.406.613.537.425.275.878.503 1.35.681.252.093.782.328.993.049a.335.335 0 0 0 .052-.094z" fill="#fff"/>
    <path fill-rule="evenodd" clip-rule="evenodd" d="M7.051 45.904a.358.358 0 0 0 .217-.261c.045-.346-.523-.81-.641-1.126-.224-.603.587-.179.802-.052.316.189.68.586 1.084.44.289-.106.935-1.28 1.308-.862.267.3-.063.62-.215.865-.129.21-.285.412-.4.63a.127.127 0 0 0 .078.16c.321.196.633.409.933.636.18.12.717.464.244.598-.274.08-.615-.04-.87-.136-.178-.066-.592-.347-.793-.283-.2.065-.115.513-.106.678.016.302.095.816-.098 1.084-.358.489-.762-1.111-.853-1.285-.308-.584-1.16-.034-1.666-.18-.719-.221.826-.827.976-.906z" fill="#fff"/>
    <path d="M43.965 43.826c-.134-.106-.324-.02-.473 0-.231.01-.463-.03-.677-.12a1.161 1.161 0 0 1-.458-.298c-.196-.21-.28-.496-.46-.716-.538-.667-1.309-.96-2.12-1.165-.264-.069-.531-.12-.801-.154a2.891 2.891 0 0 0-1.295.113c-.151.052-.21.065-.15.226l.137.358c.278.502.505 1.03.794 1.527.051.085.096.175.134.268.022.049.161.359.068.346-.322-.079-.686-.358-1.003-.478-.05-.018-.2-.077-.248-.043-.179.118.022.716.065.87.087.319.198.63.335.93.037.101.084.198.142.289.062.087.107.052.188-.022.225-.204.358-.537.537-.768.027-.034.068-.131.118-.142.088-.018.219.776.226.964.007.188-.134.538.025.69.16.152.448.025.626-.063.104-.054.895-.717.985-.813a1.463 1.463 0 0 0-.02.222.333.333 0 0 0 .18.344.23.23 0 0 0 .213-.01.537.537 0 0 0 .143-.18c.025-.041.048-.086.073-.125.1-.162.212-.316.335-.46a5.318 5.318 0 0 1 .844-.686 4.953 4.953 0 0 1 .973-.468c.135-.042.835-.221.564-.436zm-2.365-.023a.331.331 0 0 1-.144-.564.33.33 0 1 1 .144.564zM46.625 9.119c-.99-1.075-2.47-1.462-3.856-1.718-1.27-.235-2.581-.505-3.868-.627a8.59 8.59 0 0 0-.466-.025c-.276-.197-.433-.493-.641-.764-.505-.659-.826-.976-1.367-1.612-.292-.34-1.161-1.657-1.277-.586-.113 1.03.104 2.014-.212 3.046-2.248.149-4.373.59-6.326 1.76a10.157 10.157 0 0 0-2.687 2.298c-.67.828-1.167 1.994-2.292 2.277-.964.24-2.023-.01-3 0-.36 0-1.5.075-.707.507.794.432 1.767.475 2.602.761.835.287 1.487.825 2.15 1.405.207.18 1.49 1.501 1.791 1.365a.017.017 0 0 0 .01-.01c.03-.131-.821-1.212-.918-1.371-.563-.93-.7-1.97.047-2.84a4.736 4.736 0 0 1 1.775-1.265c2.754-1.137 5.65-.387 8.463.049.147.023.422.018.506.165.143.247-.02.559-.131.763-.149.272-.37.568-.49.845-.044.099-.18.348.035.359.09-.005.178-.02.265-.043.256-.065.502-.163.733-.29.213-.115.42-.24.62-.377.63-.432 1.075-1.1 1.845-1.32.717-.204 1.46-.167 2.186-.276 1.254-.19 2.508-.45 3.655-1.012.281-.145 2.053-.918 1.555-1.464zm-2.76-.134a.702.702 0 1 1-1.37-.307.702.702 0 0 1 1.37.307zM51.234 25.937a1.24 1.24 0 0 0-.31-.493c-.274-.199-.717-.285-.951.013-.063.077-.326.612-.045.594.15 0 .235-.26.398-.13a.624.624 0 0 1 .155.422.407.407 0 0 1-.24.407c-.256.1-.609-.032-.811-.199-.325-.265-.48-.7-.6-1.087a2.916 2.916 0 0 1-.1-.717c-.017-.29-.031-.683-.18-.942a2.45 2.45 0 0 0-.56-.64c-.148-.133-.438-.294-.454-.512-.013-.19.215-.106.326-.108a2.8 2.8 0 0 0 .554-.118c.2-.043.396-.102.586-.18 1.275-.537 2.329-2.03 1.687-3.403a1.699 1.699 0 0 0-.331-.45c-.5-.518-1.319-.695-1.761 0a.831.831 0 0 0-.135.638c.052.195.308.46.538.308.13-.088.082-.236.079-.358-.013-.412.453-.287.63-.08.398.474.043 1.364-.304 1.766a2.496 2.496 0 0 1-2.213.874 2.15 2.15 0 0 1-1.075-.466 1.814 1.814 0 0 1-.428-.455 1.035 1.035 0 0 1-.199-.537c.016-.138.147-.228.25-.305a2.37 2.37 0 0 1 .397-.233c.267-.143.563-.224.865-.236.119.018.238.026.358.025.205-.029.104-.146.043-.278a2.956 2.956 0 0 1-.13-.478c-.054-.206-.11-.504-.377-.41-.164.058-.267.318-.4.436-.166.15-.37.247-.59.284-.212.03-.51 0-.64-.18-.193-.283 0-.675.102-.956.128-.35.227-.71.296-1.075.34-2.184-1.799-3.917-3.802-3.618-.4.059-.784.199-1.127.412-.338.208-.523.588-.657 1.02-.486 1.55.388 2.93 1.445 3.941.984.945 2.394 1.29 1.498 2.7a1.323 1.323 0 0 1-2.19 0c-.23-.358-.164-.811-.178-1.236-.056-1.1-.158-2.18-1.108-3.013a2.922 2.922 0 0 0-.842-.538c-.716-.277-1.512-.075-2.162.27a2.132 2.132 0 0 0-.9.905c-.304.606-.413 1.579.22 2.025a.737.737 0 0 0 .934 0c.27-.244.083-.61-.25-.63-.103 0-.259.06-.345-.03-.166-.168.104-.56.18-.716.383-.704 1.127-.87 1.877-.77.38.043.74.185 1.047.412.144.122.262.274.345.444.326.649.117 1.433.092 2.114-.027.733.084 1.433.66 1.957.127.111.276.198.436.254.57.213 1.202.129 1.774-.036.068-.021.42-.179.385 0a.635.635 0 0 0-.038.07c-.284.197-.614.32-.958.358-.297.038-.596.06-.896.067a8.495 8.495 0 0 0-.908.071 2.238 2.238 0 0 0-1.389.654c-.485.523-.358 1.353-.277 1.833.034.194.068.385.116.575.072.287.18.622.443.789.11.06.232.097.358.107.276.027.656-.086.73-.389a.609.609 0 0 0-.019-.358c-.027-.072-.122-.18-.208-.168-.086.01-.145.179-.261.197-.215.025-.276-.378-.303-.516a1.97 1.97 0 0 1 .009-.946c.054-.179.154-.34.288-.47a1.4 1.4 0 0 1 .51-.3c.388-.117.794-.168 1.2-.151.376 0 .765.043 1.132-.06.367-.102.602-.393.917-.573.316-.179.034.242-.027.33-.07.098-.149.19-.236.272a3.157 3.157 0 0 1-.613.432c-.382.219-.794.378-1.138.658a1.97 1.97 0 0 0-.653 1.238c-.12.679-.169 1.318.118 1.97.125.226.22.467.283.717.032.195-.01.37-.21.21-.168-.131-.426-.18-.566 0a.585.585 0 0 0 .084.686c.208.226.59.243.871.197a1.027 1.027 0 0 0 .75-.615c.166-.394.037-.906-.116-1.284-.197-.49-.372-.995-.206-1.527.113-.383.324-.73.613-1.007.134-.12.278-.228.43-.324.537-.34 1.188-.557 1.612-1.046.124-.151.219-.324.28-.509.045-.113.114-.405.29-.35.285.088.23.574.255.802.025.206.025.415 0 .621-.085.672-.466 1.254-.74 1.86-.332.726-.538 1.422-.16 2.182.131.237.321.436.552.577.516.346 1.222.319 1.791.104.325-.118.61-.326.821-.599a1.171 1.171 0 0 0 .041-1.089c-.238-.518-1.31-.896-1.612-.224a.57.57 0 0 0 .032.525c.063.092.237.18.328.084.091-.095.014-.311.18-.336.343-.05.291.555.146.716-.18.195-.538.244-.792.213a1 1 0 0 1-.596-.48 1.379 1.379 0 0 1-.131-.741 2.32 2.32 0 0 1 .23-.767c.236-.43.498-.846.784-1.244.272-.42.582-.953.564-1.472a.971.971 0 0 0-.106-.425c-.025-.047-.14-.224-.032-.262a.785.785 0 0 1 .588.262c.335.37.46.912.582 1.381.149.56.283 1.134.588 1.636.292.438.728.761 1.232.914a1.198 1.198 0 0 0 1.075-.093c.327-.27.547-.647.622-1.065a.985.985 0 0 0-.016-.526zm-7.883-7.045a.537.537 0 1 1 .344-.21.538.538 0 0 1-.348.21h.004zm1.166-.958a.63.63 0 1 1 .232-.08.628.628 0 0 1-.235.08h.003zM58.915 36.595c.05.062.08.139.084.219a.822.822 0 0 1-.263.564c-.082.058-.167.11-.255.156h-.012c-.083.09-.157.19-.223.294-.039.044-.078.082-.112.116h.034c.294.018.581.1.842.238.035.02.116.036.213.074a.38.38 0 0 1 .165.11c.06.068.093.153.096.243a.729.729 0 0 1 0 .123.217.217 0 0 1-.071.131l-.023.02a.285.285 0 0 1-.16.05.69.69 0 0 1-.118-.009h-.107a2.563 2.563 0 0 1-.954-.104l-.179-.072a2.008 2.008 0 0 0 0 .253v.02c-.016.21-.041.797-.041.797s.04.513-.147.781a.351.351 0 0 1-.032.038.227.227 0 0 1-.13.052h-.091a.23.23 0 0 1-.141-.106 1.657 1.657 0 0 1-.215-.629v-.046c-.01-.167.009-.335 0-.418v-.041c.012-.124.025-.25.04-.374v-.052c0-.085-.013-.18-.02-.257h-.036a.627.627 0 0 1-.144.1 6.125 6.125 0 0 1-.856.323.786.786 0 0 1-.392.098.376.376 0 0 1-.18-.07l-.014-.013-.014-.013-.011-.013a.375.375 0 0 1-.074-.204v-.095c.04-.09.102-.17.18-.233.103-.081.213-.153.33-.215.198-.109.413-.288.67-.42a.576.576 0 0 1 .166-.05.228.228 0 0 0 .045-.01h.009a.537.537 0 0 0 .132-.091c-.202-.29-.419-.57-.65-.839a.795.795 0 0 1-.143-.404.488.488 0 0 1 .037-.228.22.22 0 0 1 .121-.115.2.2 0 0 1 .078-.012h.013c.13.019.248.087.33.191.062.07.109.142.136.18.062.052.127.102.19.155h.008c.01.013.021.025.033.036.091.106.16.214.225.287l.027.027.18.138.008.009c.016.014.031.029.045.045a2.43 2.43 0 0 0 .28-.197l.044-.045c.102-.134.212-.26.33-.378l.047-.038c.125-.07.262-.115.405-.134a.213.213 0 0 1 .243.055l.022.002z" fill="#fff"/>
    <path d="M54.153 17.002a9.01 9.01 0 0 1 .702 2.15c.068.368.109.741.122 1.116.01.347.002.695-.025 1.041-.024.308-.06.615-.102.92-.012.101-.034.2-.065.297-.064.179-.161 1.135-.812.856-.179-.079-1.284-.6-1.539-.684-.254-.085-.738-.438-.73.028.007.466.52 1.68.88 2.15.302.345.63.667.98.962.375.358.56.64.375 1.161a31.743 31.743 0 0 0-1.592 6.22c-.115.843-.328 1.925 0 2.744.328.818 1.125.336 1.635.059a8.63 8.63 0 0 0 1.174-.878 14.794 14.794 0 0 0 3.103-3.377c.227-.335.444-.68.666-1.022.868-1.332 1.932-3.465 2.075-3.89.207-.479.57-.874 1.03-1.12a6.38 6.38 0 0 0 2.931-2.627c.215-.358.776-1.392.264-1.708-.298-.179-.67-.071-.984-.028-.424.069-.856.085-1.285.046a4.563 4.563 0 0 1-.97-.168c-1.357-.427-1.67-1.186-1.833-1.613-.751-2.02-2.172-3.71-3.793-5.107a18.254 18.254 0 0 0-2.043-1.554c-.302-.19-1.376-.905-1.612-1.026 0-.11-.738-1.883-2.562-3.37a4.216 4.216 0 0 0-.597-.421c-.313-.18-.516-.214-.632-.147-.212.122-.023.512.107.716.43.68 1.335 1.844.672 2.435-.716.652-2.082.402-2.658.402-.316 0-.321.21-.128.324a8.573 8.573 0 0 0 4.81 1.057c.938.919 2.19 3.508 2.436 4.056z" fill="#fff"/>
    <path fill-rule="evenodd" clip-rule="evenodd" d="M27.802 33.961c-.167-.093-.405-.02-.568.047-.421.179-.77.512-1.102.813-.18.167-.358.339-.548.495-.862.693-1.634.985-2.734.883-.441-.041-1.086-.091-1.48.102-.512.255-.077.642.215.839.537.358 1.202.442 1.818.62.36.09.672.31.88.616.05.101.073.213.068.326a1.696 1.696 0 0 1-.23.695 2.159 2.159 0 0 1-.433.602 2.424 2.424 0 0 1-1.313.677c-1.04.122-2.128-.408-2.938-1.017a6.045 6.045 0 0 1-1.523-1.711c-.434-.717-.625-1.49-.824-2.3-.022-.087-.18-1.004-.273-1.015.485.011.964.114 1.41.303.914.475 1.665-1.21-1.612-2.525.06-.743.312-1.689.815-2.058.26-.18.538-.358.81-.538.537-.333 1.075-.668 1.503-1.137.157-.174.25-.397.26-.63.021-.372-.437-.275-.656-.223-.568.138-1.075.292-1.648.38-.603.1-1.213.145-1.824.136a3.211 3.211 0 0 1-.394-.036 1.13 1.13 0 0 1-.5-.179c-.13-.104-.154-.226.016-.31a.424.424 0 0 1 .358 0c.393.18.853.134 1.278.111.53-.045 1.057-.13 1.575-.253.528-.09 1.049-.22 1.557-.392.458-.179.218-.69-.045-.862-.16-.104-.371-.127-.502-.268-.358-.382-.258-.923-.245-1.394a2.967 2.967 0 0 0-.325-1.382c-1.97-3.955-7.69-2.633-9.95-.489-2.33 2.218-2.546 6.16-2.783 9.138-.155 2.02-2.53 3.633-2.54 5.683 0 1.238 1.335.908 2.033.395.635-.465 1.075-1.146 1.685-1.632.537-.424 1.28-1.015 1.727-1.075a6.52 6.52 0 0 0-.538.436c-.326.288-.632.6-.937.912-.245.252-.509.483-.57.849-.047.328.002.663.14.964a11.78 11.78 0 0 0 3.883 4.925 11.467 11.467 0 0 0 5.45 2.15c.673.08 1.352.103 2.03.071 2.449-.102 4.604-1.187 5.987-3.233.33-.451.595-.948.783-1.475.174-.514.32-1.036.439-1.566.117-.526.262-1.045.435-1.555.455-1.254 1.665-2.064 2.018-3.386.04-.17.021-.435-.138-.527zm-14.079-6.113a.537.537 0 1 1 .436-.634.547.547 0 0 1-.436.634z" fill="#fff"/>
    <path d="M68.186 32.397c-.375-.512-.896-.878-1.183-1.458-.164-.339-.25-.717-.465-1.027a1.903 1.903 0 0 0-1.075-.647c-.493-.084-.717.255-.966.613-.346.504-.597.595-1.147.853a1.434 1.434 0 0 0-.578.41c-.18.29-.18.633-.312.937-.18.432-.692.443-1.046.656a3.51 3.51 0 0 1-1.115.143c-.268-.021-.401-.125-.501.147-.061.167.068.67.252.731.305.099.692-.179.896-.281.59-.272 1.086-.165 1.523-.13.525.193.939.605 1.467.784.3.102.611.034.916 0 .12-.018.752-.097.815.104.052.157-.165.44-.283.537-.708.516-1.815.41-2.437 1.075-.2.217-.272.39-.523.556-.25.165-.537.28-.673.618-.087.216-.049.408-.29.528-.133.07-.34.099-.432.226-.148.199-.13.452-.131.688 0 .358-.262.572-.4.869a1.812 1.812 0 0 0-.057 1.053c.242 1.38 1.085 2.509 1.994 3.525.521.585 1.059 1.227 1.062 2.05 0 .864-.586 2.077-1.553 2.126a1.32 1.32 0 0 1-.753-.158 1.223 1.223 0 0 1-.45-.49 1.417 1.417 0 0 1-.074-.17 1.611 1.611 0 0 1-.06-.178c-.017-.08-.035-.233.058-.275a.244.244 0 0 0 .016.167c.09.274.24.524.439.733a.861.861 0 0 0 .747.22c.073-.013.145-.035.213-.064.077-.036.151-.076.222-.122.077-.045.148-.098.214-.158.487-.498.399-1.38-.06-1.861-.254-.27-.895-.45-1.254-.45-.802 0-1.399.736-1.528 1.48-.118.68.18 1.546.627 2.071l.034.043c.477.552 1.16.908 1.906.815 1.37-.179 2.098-1.206 2.579-2.392.387-.958.473-2.004.453-3.03-.015-.573-.118-1.2.08-1.751-.06.166.662.516.846.263.247-.342-.06-1.066.11-1.475.103-.252.458-.616.358-.91-.124-.374-.595-.179-.885-.168-.733-.885.942-2.508 1.417-3.157.92-1.252 2.07-3.189.987-4.669zm-4.139-.394a.396.396 0 1 1-.784-.116.396.396 0 0 1 .784.116z" fill="#fff"/>
    <path d="M62.574 51.643c-1.91 1.444-4.202 1.632-4.546 1.643.027-.696.111-1.869.061-2.586-.06-.974-.19-1.943-.387-2.899-.562-2.083-.788-3.061-2.028-5.141-1.352-2.272-2.791-3.632-4.683-5.174-.822-.67-1.95-1.255-2.895-1.733-2.428-1.075-3.146-1.132-5.017-1.507-1.456-.29-2.709-.716-3.295-1.861-.09-.18-.358-.803-.707-.695-.282.084.16 1.229.247 1.453.21.55.39 1.111.538 1.682.397 1.758.489 3.728.852 3.617.128-.041.2-.487.2-.487.092-.538.576-1.34 1.298-1.602 2.463-.887 4.337.717 5.443 3.164.636 1.417.896 3.47.865 4.726a4.552 4.552 0 0 1-.786-.345c-.866-.538-.82.025-.82.025.039 1.29.463 2.56 1.006 3.71a12.554 12.554 0 0 1-3.65 4.639c-.6.487-1.9-.303-2.488-.717-.863-.595-2.006-1.906-2.272-1.312-.053.16-.07.33-.05.497.05.535.134 1.067.255 1.59.229 1.194.863 2.049.444 2.642-.509.716-1.94 1.943-2.605 2.54-.332.294-.67.572-.99.88-.718.686-1.63 1.417-1.972 2.383-.358 1.046.05 2.15.751 2.956.731.84 1.792 1.33 2.75 1.842.894.465 1.818.87 2.766 1.21 1.71.628 3.562 1.024 5.388.864 1.825-.16 3.336-.985 4.79-2.015 1.541-1.092 3.25-2.937 4.075-4.256.19-.308.553-.874.734-1.184.09-.162.195-.316.312-.46 7.236-2.207 8.198-6.6 8.311-7.774.127-1.21-.537-1.338-1.895-.315zm-15.014-1.75c.075-.212.245-.379.378-.37.133.01.18.188.106.402-.074.213-.247.378-.38.37-.133-.007-.18-.191-.104-.403zm-4.556 5.078c.18-.26.505-.417.717-.343.211.073.225.349.037.612-.188.264-.507.418-.716.346-.21-.072-.226-.35-.038-.614zm-8.15 6.735a.563.563 0 0 1 .416-.641.493.493 0 0 1 .632.358.562.562 0 0 1-.414.64.495.495 0 0 1-.634-.357zm10.803 5.214c-2.77.358-10.902-3.61-10.13-4.107.276-.179 2.285 1.075 4.747 1.971 3.146 1.15 6.587 1.98 5.383 2.136zm.328-14.154c-.17-.034-.215-.249-.095-.482.12-.233.359-.387.527-.358.168.029.218.252.099.483-.12.232-.36.386-.534.35l.003.007zm.32 3.822c.18-.438.6-.766.924-.73.324.036.437.436.249.877-.189.44-.6.768-.927.727-.326-.041-.437-.436-.249-.882l.004.008zm1.925 9.4a.717.717 0 0 1-.908.453.7.7 0 0 1-.482-.874.716.716 0 0 1 .896-.455.706.706 0 0 1 .49.869l.004.007zm2.293-23.739c.102-.104.274-.037.382.153a.479.479 0 0 1 .009.526c-.102.106-.272.04-.383-.148a.481.481 0 0 1-.011-.538l.003.007zm-1.317-2.755c.042-.104.18-.108.309-.01a.359.359 0 0 1 .16.36c-.038.103-.178.107-.305 0a.359.359 0 0 1-.167-.357l.003.007zm-.084 6.824c.097-.052.197.041.224.2a.387.387 0 0 1-.125.386c-.097.052-.199-.04-.224-.204a.378.378 0 0 1 .122-.39l.003.008zm.615 7.14c-.106.42-.428.765-.717.774-.288.009-.444-.323-.34-.744.104-.42.426-.765.716-.774.29-.009.443.315.337.736l.004.008zm.976-2.792c-.249.08-.46-.168-.47-.555-.008-.387.18-.756.433-.835.252-.079.462.18.469.557.007.378-.186.75-.435.826l.003.007zm.661-3.665c-.179.095-.38-.061-.446-.359-.066-.297.025-.614.208-.716.183-.102.38.06.446.358.066.297-.03.611-.211.71l.003.007zm1.27 12.02c-.313.179-.57 0-.576-.416a1.317 1.317 0 0 1 .566-1.06c.317-.18.575 0 .577.417a1.3 1.3 0 0 1-.566 1.059zm.538-16.714a.345.345 0 0 1-.21-.267c0-.111.072-.163.18-.124a.358.358 0 0 1 .207.27c.011.106-.071.164-.177.12zm.946 13.204c-.211.138-.401.023-.423-.265a.915.915 0 0 1 .344-.765c.212-.14.403-.022.425.261a.926.926 0 0 1-.346.769zm.374-10.425a.502.502 0 0 1-.179-.423c.024-.136.14-.167.264-.072a.5.5 0 0 1 .179.42c-.023.139-.14.171-.264.075zm.611 6.965c-.152.158-.338.097-.413-.141a.813.813 0 0 1 .14-.717c.157-.16.34-.097.415.142a.805.805 0 0 1-.142.716zm.26-3.762c-.093.127-.23.088-.306-.086a.614.614 0 0 1 .027-.538c.093-.127.229-.091.306.088a.603.603 0 0 1-.027.543v-.007zM12.251 48.52a.14.14 0 0 0-.122-.106.142.142 0 0 0-.057.006.16.16 0 0 0-.118.179.141.141 0 0 0 .179.1.161.161 0 0 0 .118-.18zM25.38 57.924a1.251 1.251 0 0 0-.13-.163c-1.142-1.295-3.224-2-4.913-2.035a4.239 4.239 0 0 0-1.878.333c-.717.339-1.324.851-2.177.7a2.52 2.52 0 0 1-1.043-.374c-.197-.138-.396-.41-.668-.373-.55.086.29.896.446 1.075a7.492 7.492 0 0 1 1.407 2.376c.132.386.216.787.249 1.193.032.307 0 .717.134 1.002a.376.376 0 0 0 .292.179c.328.048.47-.247.527-.335.057-.113.105-.23.145-.35.06.215.629 1.769.733 1.923.041.064.084.125.129.18.08.127.182.238.303.329.08.053.275.17.317.03.062-.203.134-.404.216-.6.105-.235.224-.462.359-.68a7.464 7.464 0 0 1 .831-1.12c.027.084.046.171.06.26.048.487-.062 1.04.066 1.513.044.169.073.256.236.195.156-.076.305-.167.444-.27.444-.287.863-.61 1.254-.966.196-.179.979-.811.846-1.123-.036-.088-.29-.136-.373-.158-.492-.114-1.232-.132-1.741-.276a7.24 7.24 0 0 1 .32-.297 13.446 13.446 0 0 1 .91-.727c.275-.196.519-.371.8-.529.246-.148.5-.282.76-.401.121-.05.247-.093.369-.145.105-.052.214-.093.327-.122.111-.029.235-.027.344-.067a.138.138 0 0 0 .086-.068.166.166 0 0 0 .013-.109zm-6.629-.064a.444.444 0 0 1-.516-.4.505.505 0 0 1 .457-.516.445.445 0 0 1 .518.401.51.51 0 0 1-.468.515h.009zM32.874 63.206a.611.611 0 0 0-.093-.1c-.817-.785-2.218-1.131-3.326-1.063a2.757 2.757 0 0 0-1.21.324c-.458.26-.821.63-1.387.577a1.655 1.655 0 0 1-.703-.188c-.136-.079-.28-.247-.457-.206-.358.086.237.57.359.677.437.425.792.928 1.046 1.482.108.245.184.502.227.767.038.198.035.473.142.65a.246.246 0 0 0 .202.104c.216.014.293-.18.326-.25a2 2 0 0 0 .076-.236c.052.138.507 1.124.582 1.22.03.038.061.078.095.113.06.072.133.133.215.18.055.028.18.096.21 0a3.619 3.619 0 0 1 .303-.869c.088-.178.187-.35.297-.515.059-.09.122-.179.179-.265.022.054.04.109.054.165.057.317.014.686.123.989.04.108.063.165.167.115.098-.06.19-.126.276-.201.276-.213.535-.448.774-.702.118-.13.596-.584.494-.781-.028-.056-.197-.076-.252-.085-.33-.048-.816-.017-1.154-.084.063-.073.125-.145.192-.213l.06-.06c.162-.16.321-.322.497-.467.175-.145.32-.27.494-.389.153-.11.313-.212.477-.304l.235-.115c.065-.04.135-.073.207-.098.075-.016.149-.037.22-.063a.088.088 0 0 0 .055-.048.117.117 0 0 0-.002-.061zm-4.3.347a.326.326 0 0 1-.405-.245.37.37 0 0 1 .288-.409.323.323 0 0 1 .403.248.368.368 0 0 1-.293.406h.007z" fill="#fff"/>
    <path fill-rule="evenodd" clip-rule="evenodd" d="M13.896 50.53c-.574-1.182-1.527-1.49-1.527-1.49-.179-.058-.397-.05-.496-.248a.014.014 0 0 1 0-.009c-.036-.08-.09-.346-.213-.285-.047.022-.077.147-.084.196a1.3 1.3 0 0 1-.138.485 3.07 3.07 0 0 1-.267.303 1.376 1.376 0 0 0-.204.337c-.113.25-.166.522-.156.795 0 .131.132 1.188.394.916.107-.113.093-.314.204-.427a.492.492 0 0 1 .39-.086c.18.011.488.072.275.296-.251.263.148.208.148.208.828-.12.47-.282.47-.282-.217-.071-.358-.236-.15-.4.141-.1.3-.17.469-.209a.917.917 0 0 1 .799.1c.267.189.086-.2.086-.2zm-1.362-1.007a.163.163 0 0 1-.195.102.143.143 0 0 1-.11-.179.163.163 0 0 1 .198-.1.14.14 0 0 1 .107.177z" fill="#fff"/>
    <path d="M20.753 53.072c-.279-.806-1.1-1.517-1.865-1.849a2.087 2.087 0 0 0-.922-.197c-.396.018-.767.14-1.129-.086-.161-.09-.3-.216-.407-.367-.062-.1-.104-.261-.234-.295-.27-.065-.038.464 0 .575.147.434.214.892.195 1.35-.012.202-.049.401-.11.593-.069.153-.112.316-.127.483a.18.18 0 0 0 .099.14.27.27 0 0 0 .305-.056 1.53 1.53 0 0 0 .13-.133c-.012.11-.043.925-.026 1.016 0 .038.016.073.024.111.016.07.043.136.081.195.027.041.093.131.14.074a2.88 2.88 0 0 1 .211-.233c.092-.088.189-.17.29-.246a5.03 5.03 0 0 1 .591-.353.952.952 0 0 1-.019.13c-.072.232-.224.464-.256.705-.01.085-.015.131.073.133.086-.006.17-.02.253-.041.258-.047.512-.116.76-.204.123-.047.6-.189.6-.359 0-.046-.11-.116-.142-.14-.204-.147-.537-.292-.745-.453.066-.027.134-.054.202-.077l.061-.02c.163-.052.326-.105.491-.143a4.66 4.66 0 0 1 .466-.09c.14-.022.282-.036.425-.042h.195a.941.941 0 0 1 .18 0c.054.015.11.027.168.035a.073.073 0 0 0 .051-.014.107.107 0 0 0 .026-.047.698.698 0 0 0-.035-.095zm-2.531-1.299a.299.299 0 0 1-.324.244.265.265 0 0 1-.242-.184c-.011-.034-.015-.07-.011-.106a.3.3 0 0 1 .324-.245.265.265 0 0 1 .242.185c.01.034.015.07.01.106zM32.26 50.837c.76-.29 1.022-1.792 1.022-1.792h.672c.538-.052 1.555-.403 1.163-1.872-.521-1.948-.873-4.031-1.71-5.877-.465-1.03-1.221-2.38-2.468-2.517-2.553-.285-4.27 3.746-5.017 5.608-.38.942-.863 1.97-.922 2.997-.045.781.26 1.157.761 1.35.293.102.598.162.907.18.335.027.286.294.358.552.1.388.333.73.657.966.194.14.948.383.608.636-.31.233-.778.134-1.14.166-.439.038-1.791.486-2.171.708-.33.188-1.075.761-.91 1.234.165.473.716-.064.93-.211.21-.158.436-.296.672-.412.292-.133 1.872-.688 1.925-.18.038.359-.797 1.585-.954 1.882-.214.412-.4.858-.226 1.319.19.492.725.41.865-.069a4.536 4.536 0 0 1 .75-1.46c.21-.288 1.126-1.594 1.54-1.54.358.04.459.483.523.77.075.331.358 3.322.977 3.26 1.028-.098-.056-3.242.129-3.826.215-.68 1.318.523 1.59.79.212.204.404.428.572.67.133.193.28.568.537.618.294.054.429-.374.386-.613-.147-.802-1.378-1.917-2.027-2.246-.225-.113-.648-.448-.566-.765.06-.201.378-.255.566-.326zm-2.493-1.377a.788.788 0 1 1-1.372-.775.788.788 0 0 1 1.372.776zm1.17.233a.93.93 0 1 1 .913-1.621.93.93 0 0 1-.913 1.621zM34.678 33.089a7.108 7.108 0 0 0-1.433.068c-.727.11-1.433.645-2.2.48-.314-.068-.462-.317-.7-.5-.416-.319-.922-.358-1.126-.093-.204.265-.037.747.378 1.064.051.042.106.078.163.11 0 0 .07.028 0 .087-.062.027-.122.06-.179.097-.444.276-.66.736-.478 1.023.18.287.684.294 1.13.014.251-.157.403-.358.717-.404.493-.06.919.19 1.349.383.423.183.868.313 1.324.385.305.051.613.085.923.1 1.84.086 3.362-.47 3.404-1.254.04-.783-1.43-1.472-3.272-1.56zm1.855 1.544a.256.256 0 1 1 .025-.511.256.256 0 0 1-.026.511zM34.783 28.827c-.113-.606-1.365-.882-2.802-.619-.374.069-.74.173-1.093.312-.537.217-.993.758-1.612.769-.255 0-.414-.161-.631-.258-.378-.18-.776-.113-.885.132-.11.246.106.583.484.753.047.02.097.039.146.054 0 0 .06.009.02.066a.987.987 0 0 0-.123.107c-.292.294-.377.687-.18.877.198.19.583.102.875-.194.165-.167.245-.358.478-.44.358-.137.742-.022 1.11.048.359.066.725.087 1.09.06.245-.015.488-.045.73-.089 1.442-.263 2.504-.97 2.393-1.578zm-1.093.24a.204.204 0 0 1-.206-.316.205.205 0 0 1 .37.158.203.203 0 0 1-.164.16v-.002zM26.763 31.905c-.067-.359-.81-.525-1.661-.368a3.405 3.405 0 0 0-.647.18c-.32.129-.59.45-.953.456-.152 0-.245-.096-.374-.154-.224-.102-.46-.066-.525.08-.065.144.062.343.286.443a.671.671 0 0 0 .088.035s.034 0 .01.039a.594.594 0 0 0-.073.063c-.179.179-.222.406-.109.52.113.112.346.06.518-.115.099-.099.147-.212.283-.262.218-.052.446-.042.66.029.213.04.43.051.646.035.145-.009.29-.027.432-.053.85-.153 1.485-.57 1.419-.928zm-.647.141a.12.12 0 0 1-.099-.013.121.121 0 0 1-.032-.178.12.12 0 0 1 .088-.047.122.122 0 0 1 .043.238z" fill="#fff"/>
</svg>
