<svg width="161" height="80" viewBox="0 0 161 80" fill="none" xmlns="http://www.w3.org/2000/svg">
    <path fill="#fff" d="M0 0h161v80H0z"/>
    <path fill="#fff" stroke="url(#41pl9nvrya)" stroke-width="2" d="M7 6h147v68H7z"/>
    <path d="M64.37 28.428c-.36-.012-.792-.012-1.272-.012 0-1.896-.012-3.624-.024-4.272-.252-.06-.78-.06-1.02 0-.036 1.464-.036 9.204 0 10.632.276.036.792.048 1.02 0 .012-.732.024-3.06.024-5.388.492 0 .936-.012 1.272-.024a4.068 4.068 0 0 0 0-.936zm-7.2-4.152c-2.136 0-3.12 1.152-3.12 4.956 0 3.804.984 4.956 3.12 4.956 2.148 0 3.12-1.152 3.12-4.956 0-3.804-.972-4.956-3.12-4.956zm0 8.964c-1.44 0-2.076-.84-2.076-4.008s.636-4.008 2.076-4.008c1.488 0 2.064.84 2.064 4.008s-.576 4.008-2.064 4.008zm15.887-7.8c-.012.216-.012.864-.012 1.596a375.71 375.71 0 0 0-7.38 0c-.036.252-.036.66 0 .912 1.5.024 5.1.012 7.38 0 0 .648 0 1.224.012 1.464.24.048.816.048 1.02 0 .048-.672.048-3.972 0-4.884-1.368-.06-7.344-.036-8.46 0a3.864 3.864 0 0 0 0 .912c1.092.036 5.952 0 7.44 0zm1.98 4.848c-1.248-.024-8.256-.048-10.152 0-.048.264-.048.6 0 .888.696.012 2.58.024 4.548.036-.012 1.152-.012 3.096.012 3.708.3.036.768.024 1.032 0 .024-.636.012-2.568 0-3.708 2.052 0 3.984-.012 4.56-.036a2.754 2.754 0 0 0 0-.888zm11.411-1.86c-.36-.012-.791-.012-1.271-.012 0-1.896-.013-3.624-.025-4.272-.252-.06-.78-.06-1.02 0-.035 1.464-.035 9.204 0 10.632.276.036.792.048 1.02 0 .013-.732.025-3.06.025-5.388.491 0 .935-.012 1.271-.024a4.068 4.068 0 0 0 0-.936zm-7.2-4.152c-2.136 0-3.12 1.152-3.12 4.956 0 3.804.984 4.956 3.12 4.956 2.148 0 3.12-1.152 3.12-4.956 0-3.804-.971-4.956-3.12-4.956zm0 8.964c-1.44 0-2.076-.84-2.076-4.008s.636-4.008 2.077-4.008c1.488 0 2.064.84 2.064 4.008s-.576 4.008-2.064 4.008zm18.24-4.812c-.36-.012-.793-.012-1.272-.012 0-1.896-.012-3.624-.024-4.272-.252-.06-.78-.06-1.02 0-.037 1.464-.037 9.204 0 10.632.276.036.791.048 1.02 0 .012-.732.024-3.06.024-5.388.492 0 .936-.012 1.272-.024a4.068 4.068 0 0 0 0-.936zM87.12 24.552c-.037.252-.037.66 0 .924.983.024 3.983.024 4.763 0v3.264a147.928 147.928 0 0 0-4.691.012 3.06 3.06 0 0 0 0 .936c1.008.024 3.288.024 4.692.012v4.272c.251.048.816.06 1.02 0 .072-1.308.047-8.004-.036-9.42-1.26-.06-4.74-.048-5.748 0zm20.735-.42c-.24-.06-.744-.06-.984 0-.024 1.428-.036 9.204 0 10.656.276.036.768.036.984 0 .024-1.44.024-9.144 0-10.656zm-3.336.06c-.012.6-.024 2.34-.024 4.248-.468 0-.912 0-1.308.012a5.783 5.783 0 0 0 0 .912c.396.012.852.024 1.308.024 0 2.28 0 4.56.024 5.28.276.036.768.036.984 0 .012-1.404.036-8.976 0-10.476-.24-.048-.744-.06-.984 0zm-.936 8.832L102.539 33c.012-2.112.024-5.46 0-7.56.372 0 .684 0 .936-.012.024-.3.024-.624 0-.876-1.104-.036-4.02-.036-5.412 0-.036.252-.036.6 0 .876l1.068.024c-.024 2.088-.012 5.436.012 7.548l-1.188.024a5.336 5.336 0 0 0 0 .876c1.236.036 4.356.036 5.628 0a5.329 5.329 0 0 0 0-.876zM101.567 33h-1.452c.012-2.112.012-5.46 0-7.548h1.452a527.521 527.521 0 0 0 0 7.548z" fill="#444B66"/>
    <path d="M51.563 46.744c4.928 0 6.192-.928 6.192-2.928 0-1.984-1.264-2.912-6.192-2.912s-6.192.928-6.192 2.912c0 2 1.264 2.928 6.192 2.928zm0-2.112c-3.328 0-3.712-.288-3.712-.816 0-.512.384-.8 3.712-.8 3.328 0 3.712.288 3.712.8 0 .528-.384.816-3.712.816zm-6.88 4.752c1.888.064 12.384.096 13.76 0 .064-.624.064-1.44 0-2-1.504-.032-10.432-.064-13.76 0a10.437 10.437 0 0 0 0 2zm.88 6.144c1.248.112 10.768.096 12 0 .064-1.2.064-3.856 0-5.28-.896-.032-11.008-.032-12 0-.048 1.312-.08 4.016 0 5.28zm2.304-1.92v-1.424c1.056-.032 6.496-.016 7.392 0v1.424c-.672.032-6.656.048-7.392 0zm24.59-3.408c.065-.608.065-1.488 0-2.096-1.343-.032-8.48-.016-9.695 0v-1.216c1.568.016 8.288.064 9.376 0 .096-1.84.112-3.504 0-5.376-1.408-.08-10.608-.08-11.792-.016a11.465 11.465 0 0 0 0 2.096c1.344.032 8.016.032 9.344 0v1.216c-.88-.032-8.32-.032-9.408 0a46.63 46.63 0 0 0 0 5.392c1.456.08 10.864.048 12.176 0zm.705 2.816C72.746 53 71.77 53 70.49 52.984c0-.816 0-1.616-.016-2.048-.48-.064-1.824-.064-2.416 0-.016.48-.016 1.264-.016 2.048h-3.536c0-.784 0-1.568-.016-2.048-.592-.064-1.936-.064-2.416 0-.016.432-.016 1.232-.016 2.048l-2.656.032a11.287 11.287 0 0 0 0 2.08c1.888.064 12.384.096 13.76 0 .064-.672.064-1.488 0-2.08zM87.577 41.08c-.48-.096-1.856-.096-2.288 0 0 .672-.016 2.848-.016 5.312h-.912c0-2.352-.016-4.432-.032-5.232-.48-.08-1.856-.096-2.288 0-.048 1.68-.064 12.24 0 14.176.56.048 1.856.048 2.288 0 0-.912.016-3.776.016-6.72h.928c0 2.992 0 5.936.016 6.864.56.032 1.856.064 2.288 0 .032-1.936.032-12.4 0-14.4zm-7.024 11.248c.016-2.544.032-6.24 0-8.72.272 0 .544-.016.784-.016.032-.704.032-1.472 0-2.064-1.488-.064-4.48-.048-7.136 0-.048.592-.048 1.44 0 2.064.24.016.512.016.784.016-.032 2.48-.016 6.176 0 8.72-.336 0-.64.016-.912.016a14.808 14.808 0 0 0 0 2.064c1.888.064 5.328.064 7.392 0 .048-.736.048-1.44 0-2.064-.272-.016-.592-.016-.912-.016zm-2.24-.032h-1.088c.016-2.528.016-6.192 0-8.656h1.088a780.465 780.465 0 0 0 0 8.656zm23.806-11.216c-.56-.08-1.968-.096-2.4 0-.048 1.856-.064 12.544 0 14.4.56.048 1.904.064 2.4 0 .064-1.904.064-12.208 0-14.4zm-13.04.448a12.535 12.535 0 0 0 0 2.192c1.216.032 4.48.032 5.472 0v3.424c-2.064-.016-4.848 0-5.408.032a12.901 12.901 0 0 0 0 2.224c.704.032 3.472.032 5.408.016v4.992c.576.064 2.016.08 2.432 0 .096-1.856.064-11.024-.048-12.88-1.408-.08-6.576-.064-7.856 0zm27.599-.448c-.56-.08-1.968-.096-2.4 0-.048 1.856-.064 12.544 0 14.4.56.048 1.904.064 2.4 0 .064-1.904.064-12.208 0-14.4zm-7.232 2.608c1.296-.016 2.464-.016 3.056-.032.048-.56.048-1.52 0-2.128a256.34 256.34 0 0 0-8.672 0 11.81 11.81 0 0 0 0 2.128c.464.032 1.68.032 3.072.032-.016 1.056-.032 2.528-.016 3.824a295.133 295.133 0 0 0-3.472 5.968c.4.4 1.424 1.008 1.984 1.152.624-.992 1.76-2.976 2.816-4.912 1.056 1.648 2.096 3.2 3.12 4.592.72-.288 1.376-.768 1.808-1.344-.88-1.344-2.4-3.552-3.68-5.376.016-1.28 0-2.8-.016-3.904z" fill="url(#2fcczkgl3b)"/>
    <defs>
        <linearGradient id="41pl9nvrya" x1="8" y1="7" x2="153" y2="7" gradientUnits="userSpaceOnUse">
            <stop stop-color="#D6A1FF"/>
            <stop offset="1" stop-color="#6573EE"/>
        </linearGradient>
        <linearGradient id="2fcczkgl3b" x1="44" y1="23" x2="118" y2="23" gradientUnits="userSpaceOnUse">
            <stop stop-color="#D6A1FF"/>
            <stop offset="1" stop-color="#6573EE"/>
        </linearGradient>
    </defs>
</svg>
